<?xml version="1.0" encoding="UTF-8"?>
<svg version="1.1" xmlns="http://www.w3.org/2000/svg" width="546" height="706">
<path d="M0 0 C1.98 0.495 1.98 0.495 4 1 C4 1.66 4 2.32 4 3 C4.58652344 3.27457031 5.17304688 3.54914063 5.77734375 3.83203125 C7.92166792 4.9588378 9.66394674 6.19080035 11.5625 7.6875 C15.80541831 10.95190029 20.29414971 13.72092727 24.875 16.484375 C25.57625 16.98453125 26.2775 17.4846875 27 18 C27 18.66 27 19.32 27 20 C27.99 20 28.98 20 30 20 C30 20.66 30 21.32 30 22 C30.78246094 22.18691406 31.56492187 22.37382812 32.37109375 22.56640625 C37.49690633 24.59135051 41.61506174 27.71985813 46.0625 30.9375 C47.82318333 32.19806206 49.58487098 33.45722275 51.34765625 34.71484375 C52.12117432 35.27292725 52.89469238 35.83101074 53.69165039 36.40600586 C56.07079259 38.0488847 58.51397441 39.52523906 61 41 C63.03045508 42.38179963 65.05055317 43.77888791 67.0625 45.1875 C71.38157751 48.20174072 75.72821571 51.16188351 80.125 54.0625 C85.13228964 57.37849766 89.99438703 60.85961127 94.8203125 64.43359375 C96.90250673 66.01742116 96.90250673 66.01742116 99 67 C99 67.66 99 68.32 99 69 C99.66 69.20625 100.32 69.4125 101 69.625 C104.44627686 71.20454356 107.15229511 73.24303121 110.1328125 75.5625 C111.70665485 76.77416106 113.34735828 77.89823885 115 79 C115 79.66 115 80.32 115 81 C115.68964844 81.22945313 116.37929688 81.45890625 117.08984375 81.6953125 C120.64322683 83.28837283 123.52738932 85.47904381 126.5625 87.875 C127.12646484 88.30941406 127.69042969 88.74382812 128.27148438 89.19140625 C131.39113971 91.62145356 134.26327686 94.14849156 137 97 C137.9075 97.86625 138.815 98.7325 139.75 99.625 C142 102 142 102 142 104 C140.02709413 106.34869747 138.99693138 107.00102287 136 108 C135.95330766 120.15414381 135.91794576 132.30826569 135.89637566 144.4624815 C135.88601421 150.10840245 135.8719977 155.75426127 135.84912109 161.40014648 C135.82711633 166.86613879 135.81537424 172.332072 135.81024551 177.79810524 C135.80659864 179.86569967 135.79948033 181.93329151 135.78853989 184.00086021 C135.69228215 202.97643329 137.38051824 221.52275085 139.9375 240.3125 C140.10862305 241.59068604 140.27974609 242.86887207 140.45605469 244.18579102 C141.54331388 252.14232141 142.80485204 260.01843054 144.484375 267.87109375 C145.05507702 271.33421737 145.22765108 274.49670287 145 278 C142.875 280.5 142.875 280.5 140 283 C138.98070113 284.12870006 137.9813444 285.27564924 137 286.4375 C136.49984375 287.0253125 135.9996875 287.613125 135.484375 288.21875 C134.50327642 289.3960683 133.53420395 290.58352472 132.578125 291.78125 C131.42457436 293.2197955 130.21662975 294.61439389 129 296 C128.34 296 127.68 296 127 296 C126.67 296.99 126.34 297.98 126 299 C124.36768683 300.70032622 122.69531352 302.36248126 121 304 C119.32292604 305.82381793 117.65633508 307.65732722 116 309.5 C111.97837747 313.97405506 107.80653918 318.2386243 103.5 322.4375 C100.92746981 325.0074975 100.92746981 325.0074975 98.5 328 C95.1334408 332.03987104 91.5330662 335.5766115 87.5 338.9375 C84.22681225 341.70058057 81.69117688 344.67143912 79 348 C73.29234776 354.01617398 66.86835397 359.2918432 60.54296875 364.640625 C58.96564229 365.9962621 58.96564229 365.9962621 57.46875 367.56640625 C55.53236589 369.45644074 53.34421384 370.66950025 51 372 C49.82822937 363.6772473 49.86576214 355.40080743 49.88647461 347.01538086 C49.88675707 345.40816245 49.8865976 343.80094392 49.8860321 342.19372559 C49.88574643 337.85347643 49.8916059 333.51325519 49.89860606 329.1730125 C49.90487797 324.62865387 49.90544643 320.08429453 49.90663147 315.53993225 C49.9097335 306.94477058 49.91793163 298.34962169 49.92798096 289.75446564 C49.9391772 279.96484397 49.94466138 270.17522168 49.94967639 260.3855952 C49.96011522 240.25705634 49.97769274 220.12852898 50 200 C52.2393451 198.71387128 54.47943522 197.42907155 56.7199707 196.14501953 C57.35016365 195.78289871 57.9803566 195.42077789 58.6296463 195.04768372 C63.07789823 192.50025224 67.57106456 190.1048161 72.1875 187.875 C86.90359847 181.959862 86.90359847 181.959862 98 172 C98.66 172 99.32 172 100 172 C100.268125 171.319375 100.53625 170.63875 100.8125 169.9375 C101.66961545 167.81726704 102.57119101 165.71482023 103.5 163.625 C106.14371573 157.23602032 107.32458372 151.40322911 107.625 144.5625 C107.68300781 143.46518555 107.68300781 143.46518555 107.7421875 142.34570312 C107.83533984 140.56416468 107.91870286 138.78211878 108 137 C101.14862389 138.81419575 94.50559993 140.66039355 88 143.5 C80.92654515 146.57500123 72.79515022 150 65 150 C64.67 150.66 64.34 151.32 64 152 C62.109375 152.78125 62.109375 152.78125 59.75 153.5 C57.10705989 154.32355526 54.61435492 155.16410429 52.0625 156.25 C51.381875 156.4975 50.70125 156.745 50 157 C49.34 156.67 48.68 156.34 48 156 C48 156.66 48 157.32 48 158 C44.92382812 158.29296875 44.92382812 158.29296875 41.84765625 158.5859375 C41.23792969 158.72257813 40.62820313 158.85921875 40 159 C39.67 159.66 39.34 160.32 39 161 C36.890625 161.78125 36.890625 161.78125 34.25 162.5 C30.72485657 163.47099759 27.37603473 164.59129486 24 166 C24.37963707 181.3532783 25.37935613 196.56426355 26.98364258 211.83203125 C27.77505815 219.59073907 28.18848815 227.20096149 28 235 C27.36578125 235.28617188 26.7315625 235.57234375 26.078125 235.8671875 C23.58438799 237.22655542 23.03567876 238.41080309 22 241 C21.34 241 20.68 241 20 241 C19.76023437 241.5878125 19.52046875 242.175625 19.2734375 242.78125 C17.7469286 245.44093423 16.09326485 246.6959526 13.625 248.5 C11.14028683 250.32821705 9.0491241 251.9433034 7.0234375 254.28125 C5 256 5 256 2.55078125 256.0078125 C-0.56626823 254.77626768 -2.38788053 253.18602663 -4.8125 250.875 C-5.67617188 250.06546875 -6.53984375 249.2559375 -7.4296875 248.421875 C-8.27789062 247.62265625 -9.12609375 246.8234375 -10 246 C-11.47264312 244.70090068 -12.95116112 243.408407 -14.4375 242.125 C-15.63260628 241.09206889 -16.8208747 240.05113711 -18 239 C-18.56203125 238.57332031 -19.1240625 238.14664063 -19.703125 237.70703125 C-24.63854746 231.21070711 -20.41492298 214.29890736 -19.578125 206.54296875 C-18.91602986 200.34877598 -18.38352837 194.14597609 -17.875 187.9375 C-17.74375732 186.40440186 -17.74375732 186.40440186 -17.60986328 184.84033203 C-17.07377426 178.21202819 -16.89704292 171.64890258 -17 165 C-18.093125 164.690625 -19.18625 164.38125 -20.3125 164.0625 C-22.55407994 163.41662103 -24.7869351 162.7376883 -27 162 C-27 161.34 -27 160.68 -27 160 C-28.134375 159.9175 -29.26875 159.835 -30.4375 159.75 C-34.45658333 159.24151979 -37.50361962 157.967346 -41.1328125 156.234375 C-44.9309771 154.59919787 -48.81968373 153.34053563 -52.75 152.0625 C-61.03979895 149.35746179 -69.20601887 146.43427679 -77.25 143.0546875 C-81.34012719 141.48603076 -85.51028783 140.19080609 -89.6875 138.875 C-90.55439453 138.59785156 -91.42128906 138.32070313 -92.31445312 138.03515625 C-93.14267578 137.77347656 -93.97089844 137.51179687 -94.82421875 137.2421875 C-95.57791748 137.0035498 -96.33161621 136.76491211 -97.1081543 136.51904297 C-98.99449521 135.91180639 -98.99449521 135.91180639 -101 136 C-100.94742286 139.31371928 -100.85219747 142.62496911 -100.75 145.9375 C-100.73582031 146.86369141 -100.72164062 147.78988281 -100.70703125 148.74414062 C-100.30390349 160.23328183 -95.37435904 168.74778549 -87.25 176.6875 C-83.99844158 179.00110888 -80.82237348 180.70398482 -77.234375 182.421875 C-72.96321906 184.50586896 -68.76550908 186.71994376 -64.5625 188.9375 C-63.78817627 189.34444092 -63.01385254 189.75138184 -62.21606445 190.1706543 C-56.10983485 193.38865579 -50.06114207 196.69392251 -44 200 C-44 256.43 -44 312.86 -44 371 C-50.15086141 371 -55.74300723 364.31698576 -60.0625 360.1875 C-62 358 -62 358 -63 355 C-63.55929703 354.72477005 -64.11859406 354.4495401 -64.69483948 354.16596985 C-67.99090239 352.49879312 -70.31610101 349.94520003 -72.88256836 347.34448242 C-73.74921867 346.47827019 -73.74921867 346.47827019 -74.63337708 345.59455872 C-76.54031221 343.68623159 -78.44006344 341.77091658 -80.33984375 339.85546875 C-81.6669257 338.52465383 -82.99445201 337.1942819 -84.32240295 335.86433411 C-87.81835108 332.36075221 -91.30825755 328.85121176 -94.79693604 325.34039307 C-98.33694719 321.77999235 -101.88255509 318.22517528 -105.42773438 314.66992188 C-111.16050832 308.9195778 -116.88986824 303.16585888 -122.61465454 297.40756226 C-124.07596442 295.93790428 -125.53784398 294.46881611 -127 293 C-128.33962547 291.65419609 -128.33962547 291.65419609 -129.70631409 290.28120422 C-131.34918684 288.64727159 -133.02101177 287.04224977 -134.7109375 285.45703125 C-141.75814029 278.46149417 -141.75814029 278.46149417 -142.45703125 274.23828125 C-142.19499869 271.69770467 -141.71455144 269.44869675 -141 267 C-140.66014009 265.33465195 -140.32749003 263.66782468 -140 262 C-139.84152588 261.25983643 -139.68305176 260.51967285 -139.51977539 259.75708008 C-138.11788164 253.10355814 -137.22943691 246.43781938 -136.4375 239.6875 C-136.18790195 237.58703639 -135.93665955 235.48676738 -135.68359375 233.38671875 C-135.57587646 232.47108154 -135.46815918 231.55544434 -135.35717773 230.61206055 C-135.00626813 228.04583919 -134.51427932 225.53772816 -134 223 C-130.59011592 196.01396424 -130.79755558 168.74049818 -130.97836304 141.58786011 C-130.99622942 138.74156056 -130.99817074 135.89592011 -130.98672485 133.04959106 C-130.97190305 129.00739863 -131.01475168 124.96772169 -131.0625 120.92578125 C-131.05143723 119.69688171 -131.04037445 118.46798218 -131.02897644 117.20184326 C-130.95630169 111.19971317 -130.95630169 111.19971317 -133.62060547 106.09237671 C-135.71907287 104.49364827 -135.71907287 104.49364827 -139 103 C-137.497502 99.21843201 -135.33222323 97.43634761 -132.125 95 C-129.51848055 93.0081523 -127.09728285 91.09970626 -124.8046875 88.75 C-123 87 -123 87 -121 87 C-121 86.34 -121 85.68 -121 85 C-120.071875 84.5978125 -120.071875 84.5978125 -119.125 84.1875 C-116.7004767 83.04443152 -116.7004767 83.04443152 -115 80 C-113.00819591 78.98377342 -111.00847365 77.98287008 -109 77 C-108.67 76.34 -108.34 75.68 -108 75 C-107.01 75 -106.02 75 -105 75 C-105 74.34 -105 73.68 -105 73 C-103.02 72.505 -103.02 72.505 -101 72 C-101 71.34 -101 70.68 -101 70 C-99.9275 69.401875 -98.855 68.80375 -97.75 68.1875 C-95.59546359 66.96441973 -93.66935555 65.74978258 -91.6875 64.25 C-90 63 -90 63 -88 63 C-88 62.34 -88 61.68 -88 61 C-87.030625 60.46375 -86.06125 59.9275 -85.0625 59.375 C-81.19918114 57.18315787 -77.56309376 54.70652303 -73.91796875 52.171875 C-72 51 -72 51 -70 51 C-70 50.34 -70 49.68 -70 49 C-68.989375 48.443125 -67.97875 47.88625 -66.9375 47.3125 C-64.29565122 45.81580744 -61.86303431 44.19956487 -59.4375 42.375 C-56.45206596 40.17982791 -53.60405492 38.96694156 -50 38 C-50 37.34 -50 36.68 -50 36 C-43.25 32 -43.25 32 -41 32 C-41 31.34 -41 30.68 -41 30 C-39.390625 28.74609375 -39.390625 28.74609375 -37.25 27.4375 C-36.20585937 26.78587891 -36.20585937 26.78587891 -35.140625 26.12109375 C-33.08002255 25.04190962 -31.27135078 24.45529329 -29 24 C-29 23.34 -29 22.68 -29 22 C-22.375 18.125 -22.375 18.125 -19 17 C-19 16.34 -19 15.68 -19 15 C-17.68 14.67 -16.36 14.34 -15 14 C-15 13.34 -15 12.68 -15 12 C-13.6117572 11.05193174 -12.2171952 10.11185162 -10.79296875 9.21875 C-8.16320669 7.43119932 -5.86436031 5.30901253 -3.515625 3.171875 C-2 2 -2 2 0 2 C0 1.34 0 0.68 0 0 Z " fill="#FDFDFA" transform="translate(263,169)"/>
<path d="M0 0 C20.96784004 -0.49316754 41.83693469 1.24928563 62.50830078 4.73144531 C64.28360042 5.02328705 66.06484168 5.27851903 67.84667969 5.52734375 C76.00691806 6.69782449 83.71877473 9.07278042 91.58056641 11.47900391 C95.04558591 12.51463582 98.5477318 13.40785271 102.05371094 14.29296875 C104.67118332 15.10528777 107.12925645 16.16209193 109.63623047 17.26367188 C113.00373864 18.67921353 116.46658083 19.82052214 119.92089844 21.00390625 C130.98036142 24.86616564 141.25111232 29.85914494 151.69580078 35.13330078 C154.30902555 36.45129301 156.92729504 37.75914079 159.54589844 39.06640625 C159.54589844 39.72640625 159.54589844 40.38640625 159.54589844 41.06640625 C158.88589844 41.06640625 158.22589844 41.06640625 157.54589844 41.06640625 C157.21589844 42.05640625 156.88589844 43.04640625 156.54589844 44.06640625 C155.55589844 44.06640625 154.56589844 44.06640625 153.54589844 44.06640625 C153.54589844 44.72640625 153.54589844 45.38640625 153.54589844 46.06640625 C152.45277344 46.66453125 151.35964844 47.26265625 150.23339844 47.87890625 C147.60371604 49.36870616 145.63330115 50.86914024 143.54589844 53.06640625 C142.88589844 53.06640625 142.22589844 53.06640625 141.54589844 53.06640625 C141.54589844 53.72640625 141.54589844 54.38640625 141.54589844 55.06640625 C140.80339844 55.49953125 140.06089844 55.93265625 139.29589844 56.37890625 C136.27526876 58.23247446 134.71217418 60.3025372 132.54589844 63.06640625 C131.88589844 63.06640625 131.22589844 63.06640625 130.54589844 63.06640625 C130.54589844 63.72640625 130.54589844 64.38640625 130.54589844 65.06640625 C128.55259002 66.40972279 126.55204978 67.74234637 124.54589844 69.06640625 C123.88589844 70.05640625 123.22589844 71.04640625 122.54589844 72.06640625 C121.88589844 72.06640625 121.22589844 72.06640625 120.54589844 72.06640625 C119.88589844 73.38640625 119.22589844 74.70640625 118.54589844 76.06640625 C117.88589844 76.06640625 117.22589844 76.06640625 116.54589844 76.06640625 C116.31902344 76.60265625 116.09214844 77.13890625 115.85839844 77.69140625 C114.09019755 80.89100786 112.00919641 83.35677848 109.54589844 86.06640625 C108.88589844 86.06640625 108.22589844 86.06640625 107.54589844 86.06640625 C107.54589844 86.72640625 107.54589844 87.38640625 107.54589844 88.06640625 C106.90652344 88.54078125 106.26714844 89.01515625 105.60839844 89.50390625 C103.2621688 90.97554275 103.2621688 90.97554275 102.54589844 94.06640625 C101.88589844 94.06640625 101.22589844 94.06640625 100.54589844 94.06640625 C100.21589844 95.05640625 99.88589844 96.04640625 99.54589844 97.06640625 C98.23702385 98.42375767 96.89736981 99.75146113 95.54589844 101.06640625 C93.98268178 102.92147666 92.44103983 104.79156868 90.91308594 106.67578125 C90.23632812 107.36414063 90.23632812 107.36414063 89.54589844 108.06640625 C88.88589844 108.06640625 88.22589844 108.06640625 87.54589844 108.06640625 C87.54589844 108.72640625 87.54589844 109.38640625 87.54589844 110.06640625 C86.22589844 110.06640625 84.90589844 110.06640625 83.54589844 110.06640625 C83.54589844 109.40640625 83.54589844 108.74640625 83.54589844 108.06640625 C81.78246094 107.88078125 81.78246094 107.88078125 79.98339844 107.69140625 C74.50503629 107.11473655 69.34721081 105.32715235 64.12011719 103.6640625 C52.99763901 100.14367121 42.10927023 97.58005566 30.54589844 96.06640625 C29.81113281 95.96344238 29.07636719 95.86047852 28.31933594 95.75439453 C0.16736889 91.87369001 -28.34116555 93.38799786 -55.45410156 102.06640625 C-56.39769531 102.35773438 -57.34128906 102.6490625 -58.31347656 102.94921875 C-61.74534244 104.04326995 -65.03659011 105.29433932 -68.32910156 106.75390625 C-71.45410156 108.06640625 -71.45410156 108.06640625 -74.45410156 108.06640625 C-74.45410156 108.72640625 -74.45410156 109.38640625 -74.45410156 110.06640625 C-75.50210938 110.46472656 -75.50210938 110.46472656 -76.57128906 110.87109375 C-77.48136719 111.22429687 -78.39144531 111.5775 -79.32910156 111.94140625 C-80.23402344 112.28945312 -81.13894531 112.6375 -82.07128906 112.99609375 C-84.57627163 113.9517152 -84.57627163 113.9517152 -86.45410156 116.06640625 C-87.44410156 116.06640625 -88.43410156 116.06640625 -89.45410156 116.06640625 C-89.78410156 116.72640625 -90.11410156 117.38640625 -90.45410156 118.06640625 C-93.24135761 120.04682502 -96.10137499 121.85025368 -99.01660156 123.63671875 C-105.85704119 127.87399108 -111.82895404 132.44125872 -117.51660156 138.12890625 C-119.20341942 139.81572411 -120.91655393 141.25585883 -122.76660156 142.75390625 C-126.36249741 145.78528511 -129.08797727 149.24400913 -131.87597656 153.015625 C-133.45410156 155.06640625 -133.45410156 155.06640625 -135.09472656 156.6484375 C-136.71530747 158.13627643 -136.71530747 158.13627643 -137.45410156 161.06640625 C-138.11410156 161.39640625 -138.77410156 161.72640625 -139.45410156 162.06640625 C-140.50218197 164.04163471 -141.50614267 166.04122134 -142.45410156 168.06640625 C-143.11410156 168.06640625 -143.77410156 168.06640625 -144.45410156 168.06640625 C-144.55078125 168.60910156 -144.64746094 169.15179688 -144.74707031 169.7109375 C-145.65058848 172.7210008 -147.12964678 175.07238503 -148.76660156 177.75390625 C-153.41211785 185.58193369 -156.74633778 193.38925414 -159.45410156 202.06640625 C-160.11410156 202.06640625 -160.77410156 202.06640625 -161.45410156 202.06640625 C-161.41285156 202.76765625 -161.37160156 203.46890625 -161.32910156 204.19140625 C-161.47245925 207.48863315 -162.39022709 209.9422115 -163.45410156 213.06640625 C-167.86368645 228.77786837 -171.36275728 245.02065607 -172.18066406 261.33984375 C-172.60409975 267.1106673 -173.48029288 272.81150437 -174.2980957 278.53759766 C-175.18365623 284.82954016 -175.87945224 291.11412423 -176.45410156 297.44140625 C-179.59784385 331.10454578 -189.16033219 365.52674852 -213.45410156 390.06640625 C-213.94652344 390.59621094 -214.43894531 391.12601562 -214.94628906 391.671875 C-217.53554523 394.41391337 -220.23483477 396.14515533 -223.45410156 398.06640625 C-226.07115887 399.89873872 -228.65953876 401.76689526 -231.24707031 403.640625 C-233.45410156 405.06640625 -233.45410156 405.06640625 -235.45410156 405.06640625 C-235.45410156 405.72640625 -235.45410156 406.38640625 -235.45410156 407.06640625 C-236.164375 407.41574219 -236.87464844 407.76507813 -237.60644531 408.125 C-238.52554688 408.58003906 -239.44464844 409.03507812 -240.39160156 409.50390625 C-241.308125 409.95636719 -242.22464844 410.40882813 -243.16894531 410.875 C-245.3593906 411.87166019 -245.3593906 411.87166019 -246.45410156 413.06640625 C-248.12027271 413.10704457 -249.78798251 413.10912725 -251.45410156 413.06640625 C-251.45410156 412.40640625 -251.45410156 411.74640625 -251.45410156 411.06640625 C-250.79410156 411.06640625 -250.13410156 411.06640625 -249.45410156 411.06640625 C-249.30714844 410.24076172 -249.30714844 410.24076172 -249.15722656 409.3984375 C-248.277314 406.48006084 -246.86582997 404.30791056 -245.20410156 401.75390625 C-244.57117188 400.77550781 -243.93824219 399.79710937 -243.28613281 398.7890625 C-241.87640663 396.69401101 -240.42951071 394.69018719 -238.89160156 392.69140625 C-235.8673915 388.56929814 -233.95042098 383.90271456 -231.88378906 379.25 C-230.94355142 377.15630143 -229.94822002 375.08634001 -228.89550781 373.046875 C-226.57940281 368.25774732 -225.29893899 363.26708349 -223.98779297 358.12402344 C-223.63692924 356.77128806 -223.26982985 355.42264156 -222.88525391 354.07910156 C-219.39280829 341.72668575 -219.07725627 329.49875537 -219.07910156 316.75390625 C-219.07728882 315.94324707 -219.07547607 315.13258789 -219.0736084 314.29736328 C-219.0762885 303.69489554 -219.85625919 293.55758029 -221.45410156 283.06640625 C-221.73480497 280.88520012 -222.00726202 278.70291309 -222.27050781 276.51953125 C-222.39490234 275.48957031 -222.51929688 274.45960938 -222.64746094 273.3984375 C-222.76927734 272.38136719 -222.89109375 271.36429687 -223.01660156 270.31640625 C-223.20512695 268.76759766 -223.20512695 268.76759766 -223.39746094 267.1875 C-228.52886832 224.47054845 -225.4182426 185.05916506 -212.45410156 144.06640625 C-211.79410156 144.06640625 -211.13410156 144.06640625 -210.45410156 144.06640625 C-210.45410156 142.41640625 -210.45410156 140.76640625 -210.45410156 139.06640625 C-209.79410156 139.06640625 -209.13410156 139.06640625 -208.45410156 139.06640625 C-208.32519531 138.339375 -208.19628906 137.61234375 -208.06347656 136.86328125 C-206.39789449 129.21868659 -202.80142447 121.55781698 -198.45410156 115.06640625 C-197.79410156 114.73640625 -197.13410156 114.40640625 -196.45410156 114.06640625 C-195.79855037 111.5390739 -195.79855037 111.5390739 -195.45410156 109.06640625 C-194.79410156 109.06640625 -194.13410156 109.06640625 -193.45410156 109.06640625 C-193.34066406 108.47988281 -193.22722656 107.89335938 -193.11035156 107.2890625 C-192.40300775 104.89335638 -191.46963772 103.47322213 -189.95410156 101.50390625 C-188.21762449 99.23739983 -187.37919392 97.84168332 -186.45410156 95.06640625 C-185.79410156 95.06640625 -185.13410156 95.06640625 -184.45410156 95.06640625 C-183.95910156 93.08640625 -183.95910156 93.08640625 -183.45410156 91.06640625 C-182.79410156 91.06640625 -182.13410156 91.06640625 -181.45410156 91.06640625 C-181.19628906 90.5146875 -180.93847656 89.96296875 -180.67285156 89.39453125 C-179.27447031 86.7232645 -177.66646851 84.29788716 -175.95410156 81.81640625 C-175.34566406 80.924375 -174.73722656 80.03234375 -174.11035156 79.11328125 C-173.56378906 78.4378125 -173.01722656 77.76234375 -172.45410156 77.06640625 C-171.79410156 77.06640625 -171.13410156 77.06640625 -170.45410156 77.06640625 C-170.45410156 76.40640625 -170.45410156 75.74640625 -170.45410156 75.06640625 C-168.82751608 73.33815918 -167.16753022 71.70569617 -165.45410156 70.06640625 C-164.11807735 68.73576923 -162.78491204 67.40225768 -161.45410156 66.06640625 C-160.76703125 65.380625 -160.07996094 64.69484375 -159.37207031 63.98828125 C-157.82738055 62.44044548 -156.29499103 60.88033965 -154.76660156 59.31640625 C-152.43680721 57.04957931 -150.01561056 55.06563278 -147.45410156 53.06640625 C-146.50535156 52.26203125 -145.55660156 51.45765625 -144.57910156 50.62890625 C-135.51349597 43.06640625 -135.51349597 43.06640625 -132.45410156 43.06640625 C-132.12410156 42.07640625 -131.79410156 41.08640625 -131.45410156 40.06640625 C-129.63378906 38.8203125 -129.63378906 38.8203125 -127.32910156 37.62890625 C-123.98095616 35.8737366 -120.68690415 34.05370424 -117.40869141 32.1706543 C-88.80479083 16.01084387 -88.80479083 16.01084387 -75.28222656 12.8046875 C-72.88634284 12.17924272 -70.60826657 11.4477789 -68.27050781 10.640625 C-46.36149731 3.24310137 -22.99422333 0.6222074 0 0 Z " fill="#FDFCFA" transform="translate(270.4541015625,-0.06640625)"/>
<path d="M0 0 C5.74691973 0.51657705 10.07130358 2.81127961 15.0625 5.5 C16.31897339 6.17059448 16.31897339 6.17059448 17.60083008 6.85473633 C27.60700244 12.28885025 38.24402569 18.54106729 46 27 C46 27.66 46 28.32 46 29 C46.57363281 29.23976563 47.14726563 29.47953125 47.73828125 29.7265625 C58.1984671 35.61606265 62.68087168 49.21881046 67.02490234 59.66357422 C67.8855329 61.72572606 68.77162734 63.77307372 69.67578125 65.81640625 C73 73.44806338 73 73.44806338 73 78 C73.66 78 74.32 78 75 78 C75.268125 78.804375 75.53625 79.60875 75.8125 80.4375 C76.4003125 81.7059375 76.4003125 81.7059375 77 83 C78.485 83.495 78.485 83.495 80 84 C81.6875 85.4375 81.6875 85.4375 83 87 C83 87.66 83 88.32 83 89 C83.57621094 89.24621094 84.15242188 89.49242187 84.74609375 89.74609375 C87.3624153 91.20162099 89.00891836 92.88608731 91.0625 95.0625 C95.17866856 99.27282928 99.51520374 102.99916095 104.109375 106.67578125 C107.13712042 109.11025223 110.0986256 111.61330644 113.0625 114.125 C121.54997563 121.26001736 121.54997563 121.26001736 131 127 C130.67 125.68 130.34 124.36 130 123 C129.34 123 128.68 123 128 123 C128 122.34 128 121.68 128 121 C127.278125 120.75894531 126.55625 120.51789063 125.8125 120.26953125 C122.61128033 118.82453626 120.56794357 117.07488504 118 114.6875 C117.12601562 113.87539063 116.25203125 113.06328125 115.3515625 112.2265625 C114.57554688 111.49179687 113.79953125 110.75703125 113 110 C112.13375 109.195625 111.2675 108.39125 110.375 107.5625 C99.97173615 96.33792585 93.12804967 84.37753186 88 70 C87.46001125 68.64516337 86.91859857 67.29089231 86.375 65.9375 C82.48775821 55.37386552 80 43.31287633 80 32 C83.53756702 32.60689637 85.55302136 33.99536381 88.3125 36.25 C91.16809163 38.55243895 94.0305487 40.74806161 97.0625 42.8125 C98.031875 43.534375 99.00125 44.25625 100 45 C100 45.66 100 46.32 100 47 C100.57878906 47.23074219 101.15757813 47.46148438 101.75390625 47.69921875 C104.5637803 49.32650233 105.98137981 51.22887195 107.9375 53.8125 C110.07801424 56.59398154 112.01790657 59.01620118 114.625 61.375 C117.80329276 64.88784989 119.55758279 68.79768893 121.5703125 73.0625 C122.91198844 75.95789913 122.91198844 75.95789913 124.4921875 78.35546875 C130.89547145 89.58609889 135.48716502 106.31027108 134.87109375 119.203125 C134.42319165 126.26140582 134.42319165 126.26140582 137.23242188 132.5078125 C140.72033662 135.55592776 144.71303284 137.70773708 148.8046875 139.83789062 C151.00448421 141.00237376 153.125173 142.25120097 155.25 143.546875 C164.30460663 149.05973142 173.60127328 154.10226468 183 159 C181.57470293 155.55988508 179.94708828 153.96220591 176.9375 151.8125 C170.25860258 146.80332693 163.79565264 140.88071901 159 134 C159 133.34 159 132.68 159 132 C158.34 132 157.68 132 157 132 C148.96609552 116.31475791 143.61451788 99.31546285 142.2890625 81.71484375 C142.03273163 78.42064567 141.59773554 75.24702103 141 72 C143.60582371 71.06934867 144.64198224 70.85082593 147.25 71.9375 C147.8275 72.288125 148.405 72.63875 149 73 C149 73.66 149 74.32 149 75 C149.56976563 75.10054687 150.13953125 75.20109375 150.7265625 75.3046875 C157.23140063 77.29413971 162.56708513 83.23600127 166.7109375 88.421875 C167.9738366 90.03524058 167.9738366 90.03524058 169.51171875 91.4375 C171.22991914 93.24138492 172.2663271 95.05357082 173.4375 97.25 C174.89548604 99.96387501 176.3756719 102.62239293 177.96875 105.26171875 C180.21836627 109.20052985 181.69904777 113.2461189 183.0625 117.5625 C183.44656006 118.77740112 183.44656006 118.77740112 183.83837891 120.0168457 C187.10045215 130.9419879 192.42881955 149.42795113 188 160.5 C187.67 160.995 187.34 161.49 187 162 C188.7634375 162.556875 188.7634375 162.556875 190.5625 163.125 C194.85158436 164.54349028 199.01351253 166.21636767 203.1875 167.9375 C209.36046309 170.46923584 215.52261447 172.42558986 221.9765625 174.140625 C225 175 225 175 227.53515625 176.0390625 C230.28543015 177.11127705 232.90438905 177.63447526 235.8125 178.125 C236.78832031 178.29257812 237.76414063 178.46015625 238.76953125 178.6328125 C239.50558594 178.75398437 240.24164063 178.87515625 241 179 C239.906875 178.360625 238.81375 177.72125 237.6875 177.0625 C237.07261719 176.70285156 236.45773438 176.34320312 235.82421875 175.97265625 C233.86180445 174.86098753 233.86180445 174.86098753 231 174 C231 173.34 231 172.68 231 172 C230.34 171.79375 229.68 171.5875 229 171.375 C224.87323566 169.48356634 221.53052711 166.82825228 218 164 C217.01128906 163.25878906 216.02257812 162.51757812 215.00390625 161.75390625 C211.61457699 158.90307354 209.77944652 155.70437835 207.875 151.75 C207.5351709 151.0597876 207.1953418 150.3695752 206.84521484 149.65844727 C203.84538987 143.25771654 202.17093846 136.74754449 200.7890625 129.83984375 C200.03238049 126.15757435 199.05609588 122.60574995 198 119 C197.35197584 115.61587382 196.90558021 112.23185314 196.5 108.8125 C196.13412309 105.08539973 196.13412309 105.08539973 195 102 C198 102 198 102 199.4296875 103.359375 C199.94789063 103.90078125 200.46609375 104.4421875 201 105 C202.35111518 105.79222015 203.72914622 106.53956546 205.125 107.25 C210.12848328 109.9530312 214.84303747 113.09854817 219 117 C219 117.66 219 118.32 219 119 C219.61875 119.2475 220.2375 119.495 220.875 119.75 C223.35068687 121.20628639 223.95125002 122.37812506 225 125 C225.66 125 226.32 125 227 125 C228.61817792 126.86164689 230.09641189 128.711871 231.5625 130.6875 C231.97435547 131.21794922 232.38621094 131.74839844 232.81054688 132.29492188 C235.19866068 135.48037646 236.57946611 138.02337249 237 142 C237.66 142 238.32 142 239 142 C243.42667378 151.74024809 246.06540811 161.51005815 248.4921875 171.90039062 C248.91757812 173.6415918 248.91757812 173.6415918 249.3515625 175.41796875 C249.59729004 176.46750732 249.84301758 177.5170459 250.09619141 178.59838867 C250.39444824 179.39092041 250.69270508 180.18345215 251 181 C260.90735546 184.30245182 277.39973096 185.55052753 287 181 C290.1066606 177.08162286 290.9455777 172.66804943 291.9375 167.875 C294.1365287 157.95071555 297.32255921 149.03229946 302 140 C302.33 139.01 302.66 138.02 303 137 C303.66 137 304.32 137 305 137 C305.10441406 136.42765625 305.20882813 135.8553125 305.31640625 135.265625 C306.11159499 132.63014232 307.27901491 130.93968692 308.9375 128.75 C309.46214844 128.04359375 309.98679687 127.3371875 310.52734375 126.609375 C311.25630859 125.81273437 311.25630859 125.81273437 312 125 C312.66 125 313.32 125 314 125 C314 124.34 314 123.68 314 123 C315.6396721 121.63360658 317.31110128 120.3050581 319 119 C320.0828125 117.88625 320.0828125 117.88625 321.1875 116.75 C323 115 323 115 325 115 C325.33 114.01 325.66 113.02 326 112 C330.12220631 108.90834527 334.58989655 106.54400751 339.14453125 104.1484375 C341.15424327 103.12915429 341.15424327 103.12915429 342 101 C342.99 101.33 343.98 101.66 345 102 C339.60477693 138.31906264 339.60477693 138.31906264 333 150 C332.34 150.33 331.68 150.66 331 151 C330.3313799 152.66588397 329.66500465 154.33266949 329 156 C323.36643673 164.29890503 315.3702032 168.92155885 307 174 C304.98527227 175.31286215 302.9920799 176.65277272 301 178 C308.93417272 178 316.3091898 174.99236079 323.55078125 171.95703125 C325.93199124 171.02657439 328.28111904 170.34398874 330.75 169.6875 C335.9546375 168.2123002 340.58646332 165.84559717 345.35449219 163.33666992 C349.81614765 161 349.81614765 161 352 161 C351.85691406 159.9790625 351.85691406 159.9790625 351.7109375 158.9375 C350.11800408 145.00859378 352.72085604 132.23091638 357 119 C357.30550781 118.05253906 357.61101562 117.10507812 357.92578125 116.12890625 C358.60014439 114.08024857 359.29690498 112.03897555 360 110 C360.66 110 361.32 110 362 110 C362.17402344 108.90171875 362.17402344 108.90171875 362.3515625 107.78125 C363.00809096 104.96529662 363.92880443 102.98920935 365.375 100.5 C365.82230469 99.72785156 366.26960938 98.95570313 366.73046875 98.16015625 C367.14941406 97.44730469 367.56835938 96.73445312 368 96 C368.556875 94.989375 369.11375 93.97875 369.6875 92.9375 C370.120625 92.298125 370.55375 91.65875 371 91 C371.66 91 372.32 91 373 91 C373.25136719 90.41605469 373.50273437 89.83210937 373.76171875 89.23046875 C377.40378446 82.67015481 384.88500734 78.22757824 390.9375 74 C391.50509033 73.60208252 392.07268066 73.20416504 392.6574707 72.79418945 C396.74735533 70 396.74735533 70 399 70 C397.85961393 99.92530349 389.62882369 127.27365097 367.62109375 148.26953125 C362.6171371 152.79428763 362.6171371 152.79428763 359 154 C359 154.66 359 155.32 359 156 C364.00851623 155.42058342 367.81813521 153.13373185 372.125 150.6875 C373.28805664 150.03612061 373.28805664 150.03612061 374.47460938 149.37158203 C381.46257298 145.40903181 388.24881783 141.14148964 394.98095703 136.76049805 C395.74005371 136.26976807 396.49915039 135.77903809 397.28125 135.2734375 C397.95220703 134.83435059 398.62316406 134.39526367 399.31445312 133.94287109 C401 133 401 133 403 133 C403.57324344 129.01459325 404.13495275 125.02793371 404.68359375 121.0390625 C404.93483066 119.23436593 405.18613405 117.42967861 405.4375 115.625 C405.55931641 114.73039063 405.68113281 113.83578125 405.80664062 112.9140625 C407.0232175 104.2404367 408.70514186 96.1253289 412 88 C412.35707031 87.10152344 412.71414063 86.20304688 413.08203125 85.27734375 C414.0485694 82.84904472 415.02163888 80.42355444 416 78 C416.66 78 417.32 78 418 78 C418.37125 76.4840625 418.37125 76.4840625 418.75 74.9375 C419.89660638 70.86621646 421.79741473 67.59755594 424 64 C424.66 64 425.32 64 426 64 C426 63.01 426 62.02 426 61 C426.66 61 427.32 61 428 61 C428.28875 60.401875 428.5775 59.80375 428.875 59.1875 C430 57 430 57 432 54 C432.66 54 433.32 54 434 54 C434.37125 53.12794922 434.37125 53.12794922 434.75 52.23828125 C438.95498233 44.70873477 449.89455861 36.7018138 458 34 C458 33.34 458 32.68 458 32 C458.66 32 459.32 32 460 32 C459.10275263 44.94982395 457.252899 56.72251789 453 69 C452.69191406 69.9075 452.38382812 70.815 452.06640625 71.75 C444.99947083 90.84642994 433.10728879 104.72484331 418 118 C417.44231934 118.49274414 416.88463867 118.98548828 416.31005859 119.49316406 C412.24503689 123 412.24503689 123 410 123 C409.67 124.32 409.34 125.64 409 127 C412.50436989 125.41684937 415.38053351 123.32279679 418.4375 121 C418.95538086 120.60699707 419.47326172 120.21399414 420.00683594 119.80908203 C421.10781965 118.97229483 422.20756272 118.13387315 423.30615234 117.29394531 C424.99865999 116.00102364 426.69624667 114.71500792 428.39453125 113.4296875 C433.73516319 109.37254124 438.98068693 105.26272844 443.97265625 100.77734375 C446.44481324 98.61003849 449.00110536 96.56093219 451.5625 94.5 C463.06169615 85.06843248 468.19923312 76.0060817 473.01171875 62.0703125 C476.48999637 52.43282568 481.33884002 44.49173998 487 36 C487.66 36 488.32 36 489 36 C489.061875 35.1646875 489.061875 35.1646875 489.125 34.3125 C490.22382758 31.40845568 492.0283413 30.10739391 494.44140625 28.23828125 C496.18967825 26.90327783 496.18967825 26.90327783 498.25 24.6875 C500 23 500 23 502 23 C502.33 22.01 502.66 21.02 503 20 C505.0625 19.3125 505.0625 19.3125 507 19 C507 18.34 507 17.68 507 17 C513.18836288 11.81177658 520.78543904 8.48458386 528 5 C529.50103222 4.23117862 531.00118371 3.46063243 532.5 2.6875 C535.16120608 1.4044185 537.18425013 0.6236639 540 0 C543.7919957 7.58399141 536.54051543 25.23010778 533.9453125 33.265625 C530.1065317 43.37882684 523.67664542 51.48483741 516 59 C515.19175781 59.87785156 515.19175781 59.87785156 514.3671875 60.7734375 C505.77092477 69.99979279 494.25611062 75.59557008 482.43359375 79.546875 C472.44071413 82.92124786 465.29747236 86.10478247 458 94 C456.99298246 94.97757649 455.97961019 95.94863717 454.9609375 96.9140625 C450.85076596 100.83087328 450.85076596 100.83087328 447 105 C447 105.99 447 106.98 447 108 C449.60499124 106.54312342 452.20901482 105.08456349 454.8125 103.625 C455.55048828 103.2125 456.28847656 102.8 457.04882812 102.375 C457.76103516 101.97539063 458.47324219 101.57578125 459.20703125 101.1640625 C459.8616333 100.79748535 460.51623535 100.4309082 461.19067383 100.05322266 C462.83176306 99.09793201 464.4200344 98.0533104 466 97 C466.99 97 467.98 97 469 97 C469.33 96.34 469.66 95.68 470 95 C482.3742682 88.34108007 496.27953471 87.45995709 510 88 C511.24910156 88.0309375 512.49820313 88.061875 513.78515625 88.09375 C523.27818847 88.49303632 534.34335227 89.67167613 543 94 C543 94.99 543 95.98 543 97 C541.04109119 98.39300182 539.0360882 99.72245446 537 101 C535.9805881 101.98020375 534.97753644 102.97803008 534 104 C530.33333333 107 530.33333333 107 528 107 C528 107.66 528 108.32 528 109 C527.01 109 526.02 109 525 109 C525 109.66 525 110.32 525 111 C523.13332977 111.93333511 521.26576689 112.8649146 519.39453125 113.7890625 C517.81440344 114.58814834 516.24844286 115.4159722 514.69921875 116.2734375 C503.54685893 122.29680696 492.53017438 123.56215658 480 123 C479.14535156 122.99226562 478.29070312 122.98453125 477.41015625 122.9765625 C466.41323187 122.52487208 455.38008381 118.46002794 445 115 C445 114.34 445 113.68 445 113 C441.04889127 112.54726879 439.39076768 112.73134722 436.0625 115.01953125 C435.02948373 115.93698407 434.00922355 116.86893754 433 117.8125 C431.86402248 118.82391422 430.72592733 119.83295406 429.5859375 120.83984375 C429.00038086 121.36175293 428.41482422 121.88366211 427.81152344 122.42138672 C424.83511769 125.01511173 421.73673475 127.44668756 418.625 129.875 C417.78775391 130.53399292 417.78775391 130.53399292 416.93359375 131.20629883 C414.04206494 133.4672374 411.11224442 135.61748148 408.0859375 137.6953125 C407.06757813 138.45585938 406.04921875 139.21640625 405 140 C405 140.66 405 141.32 405 142 C405.98097656 141.60167969 406.96195312 141.20335937 407.97265625 140.79296875 C429.4196372 132.27962238 452.15158417 129.06956387 474 138 C474.78117187 138.28746094 475.56234375 138.57492187 476.3671875 138.87109375 C483.83998754 141.67630373 490.37583664 145.5838911 497 150 C497 150.66 497 151.32 497 152 C496.2265625 152.25394531 495.453125 152.50789062 494.65625 152.76953125 C493.6146875 153.11371094 492.573125 153.45789063 491.5 153.8125 C490.4790625 154.14894531 489.458125 154.48539063 488.40625 154.83203125 C485.95509929 155.67250609 483.54034324 156.54564274 481.12109375 157.46875 C458.50222121 165.99199906 438.05791218 166.319824 415.53125 156.62109375 C409.43432392 153.82217304 403.58293945 150.72195963 398 147 C393.22465594 147.27042694 390.20059022 148.84035273 386.25 151.4375 C380.78728799 154.93734198 375.22679253 158.21153078 369.5625 161.375 C368.80549805 161.80353271 368.04849609 162.23206543 367.26855469 162.67358398 C363.25925152 164.90359219 359.43516716 166.72076003 355 168 C355 168.66 355 169.32 355 170 C353.68 170 352.36 170 351 170 C351 170.66 351 171.32 351 172 C351.5261792 171.84853516 352.0523584 171.69707031 352.59448242 171.54101562 C362.80570939 168.67424205 372.60074942 166.51631187 383.25 166.5625 C384.09328857 166.56507813 384.93657715 166.56765625 385.80541992 166.5703125 C391.40944771 166.70378146 396.5812417 167.60271418 402 169 C403.07765625 169.26039063 404.1553125 169.52078125 405.265625 169.7890625 C413.72332301 172.15810357 420.98654274 175.6968621 428 181 C428 181.66 428 182.32 428 183 C428.56332031 183.268125 429.12664062 183.53625 429.70703125 183.8125 C432.14423115 185.07469552 434.39831955 186.48649226 436.6875 188 C437.47511719 188.515625 438.26273437 189.03125 439.07421875 189.5625 C441 191 441 191 442 193 C441.44892578 193.11972168 440.89785156 193.23944336 440.33007812 193.36279297 C436.46486517 194.21087389 432.61395028 195.08491655 428.78125 196.0703125 C412.92691065 200.04904479 398.87550861 200.06284155 383 196 C382.03191406 195.77957031 381.06382812 195.55914063 380.06640625 195.33203125 C368.7166921 192.23093043 357.47949269 184.77859933 348.578125 177.15234375 C346.23721634 174.85607464 346.23721634 174.85607464 343.625 174.5 C340.52425708 175.0906177 337.77238649 176.12288817 334.8671875 177.34375 C333 178 333 178 330 178 C330 178.66 330 179.32 330 180 C329.13375 180.12375 328.2675 180.2475 327.375 180.375 C324.0760706 180.98591285 321.16799114 181.90338768 318 183 C316.29500759 183.55209278 314.58637411 184.0930186 312.875 184.625 C312.04742187 184.88539063 311.21984375 185.14578125 310.3671875 185.4140625 C308 186 308 186 304 186 C304 186.99 304 187.98 304 189 C304.85851562 188.83242188 305.71703125 188.66484375 306.6015625 188.4921875 C324.80756961 185.85545544 340.96288031 193.82175806 356 203 C356 203.66 356 204.32 356 205 C356.721875 205.2475 357.44375 205.495 358.1875 205.75 C363.41970024 208.07542233 366.52102312 211.56130536 370 216 C370.66 216.33 371.32 216.66 372 217 C372 217.66 372 218.32 372 219 C372.86625 219.4021875 372.86625 219.4021875 373.75 219.8125 C376.05550043 221.02929189 378.02056192 222.30333879 380 224 C380 224.66 380 225.32 380 226 C359.83412683 228.70164808 340.08105213 228.32199869 322 218 C321.67 217.34 321.34 216.68 321 216 C319.34015202 215.31653318 317.67163195 214.65411685 316 214 C311.09414167 211.45946622 307.87905505 208.99416054 304 205 C303.07960938 204.09121094 302.15921875 203.18242188 301.2109375 202.24609375 C300.27507812 201.31925781 299.33921875 200.39242187 298.375 199.4375 C297.89804687 198.96892578 297.42109375 198.50035156 296.9296875 198.01757812 C294.87609868 195.97825034 293.07400953 194.12233816 291.5703125 191.63671875 C290.04945394 189.67126916 290.04945394 189.67126916 287.15625 189.8984375 C285.9496875 190.05570313 284.743125 190.21296875 283.5 190.375 C266.03032418 192.10333878 247.73437676 190.21063723 231 185 C229.05637752 184.41667461 227.1123328 183.83475503 225.16796875 183.25390625 C221.15710262 182.04895062 217.15232924 180.82651371 213.15234375 179.5859375 C209.11562759 178.335373 205.06923071 177.14006186 201 176 C201 175.34 201 174.68 201 174 C198.167832 173.66551741 198.167832 173.66551741 195 174 C194.45601562 174.54398438 193.91203125 175.08796875 193.3515625 175.6484375 C179.09489566 189.90510434 156.69788589 198.69864929 136.875 199.5 C124.44638862 199.30311111 112.15320989 196.40809808 100 194 C101.22695634 190.39503302 102.28239336 188.34730093 105.37109375 186.10546875 C106.02787109 185.62529297 106.68464844 185.14511719 107.36132812 184.65039062 C108.3890332 183.92625977 108.3890332 183.92625977 109.4375 183.1875 C110.11876953 182.68541016 110.80003906 182.18332031 111.50195312 181.66601562 C116.59447279 178 116.59447279 178 120 178 C120 177.34 120 176.68 120 176 C134.79241564 168.89498147 147.6159629 165.51540172 164 166 C165.31097656 166.02513672 165.31097656 166.02513672 166.6484375 166.05078125 C174.65291606 166.46156827 181.61352129 169.07775806 189 172 C189.33 171.67 189.66 171.34 190 171 C188.96101562 170.48050781 187.92203125 169.96101562 186.8515625 169.42578125 C179.234375 165.6171875 171.6171875 161.80859375 164 158 C164 157.34 164 156.68 164 156 C163.12472656 155.74605469 162.24945313 155.49210938 161.34765625 155.23046875 C156.93148903 153.60725676 153.50377566 151.06721142 149.68359375 148.36328125 C147.1574395 146.82090831 147.1574395 146.82090831 144.68359375 147.01953125 C140.79106195 148.44169352 137.24747656 150.37377169 133.625 152.375 C115.26326222 162.43178218 94.80947171 167.54268804 74 162 C51.31072364 155.26538744 51.31072364 155.26538744 46 152 C45.67 151.01 45.34 150.02 45 149 C49.48605863 145.85975896 54.04815902 143.3308116 59 141 C59.72445312 140.65839844 60.44890625 140.31679688 61.1953125 139.96484375 C68.5261184 136.60595533 75.5744449 133.86182627 83.6640625 133.2109375 C85.54816214 133.04080141 87.42255916 132.76515947 89.2890625 132.45703125 C102.9538069 130.7741101 117.53083687 133.4097217 130 139 C131.01320312 139.45246094 132.02640625 139.90492188 133.0703125 140.37109375 C135.72005007 141.56720291 138.3627567 142.77663999 141 144 C140.01 143.34 139.02 142.68 138 142 C138 141.34 138 140.68 138 140 C137.13375 139.566875 137.13375 139.566875 136.25 139.125 C134.16666667 138.08333333 132.08333333 137.04166667 130 136 C130 135.34 130 134.68 130 134 C129.47792969 133.77699219 128.95585937 133.55398438 128.41796875 133.32421875 C125.10243576 131.5084422 122.25232277 129.16815511 119.3125 126.8125 C118.69109131 126.32362305 118.06968262 125.83474609 117.42944336 125.33105469 C114.67936912 123.16409177 111.97422784 120.97765659 109.328125 118.68359375 C105.05111309 114.91899929 105.05111309 114.91899929 99.625 113.875 C97.830625 114.431875 97.830625 114.431875 96 115 C94.37624136 115.44208497 92.75108264 115.87904122 91.125 116.3125 C90.19171875 116.57417969 89.2584375 116.83585938 88.296875 117.10546875 C68.11415592 122.58158566 68.11415592 122.58158566 59 123 C57.95392578 123.05994141 57.95392578 123.05994141 56.88671875 123.12109375 C36.87765898 123.72527495 16.53762134 113.72009658 1.9375 100.375 C-0.17841227 97.78130109 -0.47859946 96.23590853 -1 93 C8.70207653 90.3222767 17.88920339 88.29228213 28 88 C28.7537793 87.9582666 29.50755859 87.9165332 30.28417969 87.87353516 C55.3225315 86.51307548 73.83005735 95.82653369 95 108 C95 107.67 95 107.34 95 107 C94.175 106.195625 93.35 105.39125 92.5 104.5625 C90 102 90 102 90 100 C89.34 100 88.68 100 88 100 C88 99.34 88 98.68 88 98 C87.443125 97.773125 86.88625 97.54625 86.3125 97.3125 C82.34975317 95.06337342 79.55112721 91.66764069 76.671875 88.1796875 C71.99075178 83.51434495 65.68912163 81.67832517 59.625 79.375 C43.81956902 73.23034001 32.42376841 66.58521921 20 55 C19.40832031 54.47792969 18.81664063 53.95585938 18.20703125 53.41796875 C17 52 17 52 17 49 C16.34 49 15.68 49 15 49 C5.08035448 35.93440976 0 16.21766347 0 0 Z M293 188 C293.33 188.99 293.66 189.98 294 191 C294.99 190.67 295.98 190.34 297 190 C296.67 189.34 296.34 188.68 296 188 C295.01 188 294.02 188 293 188 Z M299 188 C303 189 303 189 303 189 Z " fill="#FAF8F6" transform="translate(3,479)"/>
<path d="M0 0 C1.1746582 0.23275635 1.1746582 0.23275635 2.37304688 0.47021484 C10.64794104 2.1488069 18.42915005 4.14574912 26 8 C25.67 8.99 25.34 9.98 25 11 C24.34 11 23.68 11 23 11 C22.7525 11.5259375 22.505 12.051875 22.25 12.59375 C20.3452507 16.2603924 18.11236465 19.72263474 15.921875 23.22265625 C14.13859941 26.09053602 12.43871323 28.9427344 11 32 C10.34 32 9.68 32 9 32 C8.01 35.63 7.02 39.26 6 43 C1.55968268 44.11007933 -1.06233309 43.40470983 -5.3125 42.25 C-28.43099056 36.48672173 -55.87856149 32.7997668 -79 40 C-79.99128906 40.2784375 -80.98257813 40.556875 -82.00390625 40.84375 C-91.02979267 43.57387471 -99.74424375 47.68970302 -107.72265625 52.71484375 C-110 54 -110 54 -113 54 C-113 54.66 -113 55.32 -113 56 C-114.63514884 57.05074547 -116.3095804 58.04069852 -118 59 C-126.33206265 64.65302186 -133.9203896 70.17751878 -139 79 C-139.66 79 -140.32 79 -141 79 C-141.28875 79.5775 -141.5775 80.155 -141.875 80.75 C-142.91666667 82.83333333 -143.95833333 84.91666667 -145 87 C-145.66 87 -146.32 87 -147 87 C-147 87.99 -147 88.98 -147 90 C-147.66 90 -148.32 90 -149 90 C-149.26683594 90.86496094 -149.53367188 91.72992188 -149.80859375 92.62109375 C-151.35741727 97.01365881 -153.49434558 100.98314551 -155.66015625 105.09765625 C-156.9017608 107.78719613 -157.5666526 110.08426752 -158 113 C-164.29424953 115.13364391 -170.61980176 117.12117227 -176.984375 119.03515625 C-179.71742802 119.90959161 -182.3523431 120.89680962 -185 122 C-185.97983277 107.95573033 -179.56681552 92.65479575 -174 80 C-173.34 80 -172.68 80 -172 80 C-171.566875 78.63875 -171.566875 78.63875 -171.125 77.25 C-170.23468224 74.67797092 -169.28505587 72.38653234 -168 70 C-167.34 70 -166.68 70 -166 70 C-165.7525 69.319375 -165.505 68.63875 -165.25 67.9375 C-163.75802092 64.43134917 -161.93164489 61.28379632 -160 58 C-159.34 58 -158.68 58 -158 58 C-157.77570313 57.45859375 -157.55140625 56.9171875 -157.3203125 56.359375 C-155.58713608 53.26221951 -153.28950109 50.81940746 -150.875 48.25 C-150.37782471 47.71705322 -149.88064941 47.18410645 -149.3684082 46.63500977 C-148.36985734 45.56878239 -147.36868456 44.50500371 -146.36474609 43.44384766 C-145.23133544 42.24474379 -144.10843055 41.03572003 -142.98828125 39.82421875 C-138.84617816 35.48444479 -134.31637198 31.72373565 -129.625 28 C-129.00520264 27.5062085 -128.38540527 27.01241699 -127.74682617 26.50366211 C-123.24796767 23 -123.24796767 23 -121 23 C-121 22.34 -121 21.68 -121 21 C-119.27910156 20.14921875 -119.27910156 20.14921875 -117.5234375 19.28125 C-113.89880453 17.46973084 -110.32532404 15.57793833 -106.76098633 13.65112305 C-73.90872298 -4.05357711 -36.38183274 -7.39247878 0 0 Z " fill="#FCFBF9" transform="translate(304,123)"/>
<path d="M0 0 C3 0 3 0 4.4296875 1.359375 C4.94789063 1.90078125 5.46609375 2.4421875 6 3 C7.35111518 3.79222015 8.72914622 4.53956546 10.125 5.25 C15.12848328 7.9530312 19.84303747 11.09854817 24 15 C24 15.66 24 16.32 24 17 C24.61875 17.2475 25.2375 17.495 25.875 17.75 C28.35068687 19.20628639 28.95125002 20.37812506 30 23 C30.66 23 31.32 23 32 23 C33.61817792 24.86164689 35.09641189 26.711871 36.5625 28.6875 C36.97435547 29.21794922 37.38621094 29.74839844 37.81054688 30.29492188 C40.19866068 33.48037646 41.57946611 36.02337249 42 40 C42.66 40 43.32 40 44 40 C47.32393512 47.08634678 49.78330238 54.20403644 51.8125 61.75 C52.03123779 62.54124268 52.24997559 63.33248535 52.4753418 64.14770508 C53.79788343 69.24148613 54.21019167 73.73920268 54 79 C53.20335937 78.66226563 52.40671875 78.32453125 51.5859375 77.9765625 C49.99652344 77.30753906 49.99652344 77.30753906 48.375 76.625 C47.33085937 76.18414063 46.28671875 75.74328125 45.2109375 75.2890625 C42.17096798 74.06863678 39.11794095 73.0018609 36 72 C36 71.34 36 70.68 36 70 C35.01 69.690625 35.01 69.690625 34 69.375 C29.87323566 67.48356634 26.53052711 64.82825228 23 62 C22.01128906 61.25878906 21.02257812 60.51757812 20.00390625 59.75390625 C16.61457699 56.90307354 14.77944652 53.70437835 12.875 49.75 C12.5351709 49.0597876 12.1953418 48.3695752 11.84521484 47.65844727 C8.84538987 41.25771654 7.17093846 34.74754449 5.7890625 27.83984375 C5.03238049 24.15757435 4.05609588 20.60574995 3 17 C2.35197584 13.61587382 1.90558021 10.23185314 1.5 6.8125 C1.13412309 3.08539973 1.13412309 3.08539973 0 0 Z " fill="#F8F6F3" transform="translate(198,581)"/>
<path d="M0 0 C0.70866211 0.00338379 1.41732422 0.00676758 2.14746094 0.01025391 C15.77332157 0.14432988 15.77332157 0.14432988 21.25 3.125 C15.80499688 10.80385055 10.2385539 17.04137479 2.25 22.125 C1.6725 22.7025 1.095 23.28 0.5 23.875 C0.0875 24.2875 -0.325 24.7 -0.75 25.125 C-1.41 25.125 -2.07 25.125 -2.75 25.125 C-3.08 25.785 -3.41 26.445 -3.75 27.125 C-5.8125 27.75 -5.8125 27.75 -7.75 28.125 C-7.75 28.785 -7.75 29.445 -7.75 30.125 C-18.98046875 34.6171875 -18.98046875 34.6171875 -20.95849609 35.40136719 C-22.41808366 35.99093077 -23.86211362 36.61889426 -25.30078125 37.2578125 C-37.48427265 41.57158457 -53.03989503 39.14765212 -65.75 38.125 C-65.75 37.465 -65.75 36.805 -65.75 36.125 C-64.2109375 34.64453125 -64.2109375 34.64453125 -62.125 32.9375 C-59.32552236 30.57250919 -56.87424746 28.21790614 -54.5625 25.375 C-52.23933603 22.54680039 -49.99415692 20.87859834 -46.75 19.125 C-45.72895449 18.14649805 -44.7293879 17.14519573 -43.75 16.125 C-31.62756588 5.85934716 -15.87036759 -0.10819009 0 0 Z " fill="#FAF9F7" transform="translate(229.75,666.875)"/>
<path d="M0 0 C0 0.66 0 1.32 0 2 C0.721875 2.2475 1.44375 2.495 2.1875 2.75 C7.41970024 5.07542233 10.52102312 8.56130536 14 13 C14.66 13.33 15.32 13.66 16 14 C16 14.66 16 15.32 16 16 C16.5775 16.268125 17.155 16.53625 17.75 16.8125 C20.05550043 18.02929189 22.02056192 19.30333879 24 21 C24 21.66 24 22.32 24 23 C3.83412683 25.70164808 -15.91894787 25.32199869 -34 15 C-34.33 14.34 -34.66 13.68 -35 13 C-36.65984798 12.31653318 -38.32836805 11.65411685 -40 11 C-44.90624053 8.4592683 -48.12298126 5.99728077 -52 2 C-52.9631159 1.03343149 -53.92799698 0.06861902 -54.89453125 -0.89453125 C-57.59635417 -3.59635417 -60.29817708 -6.29817708 -63 -9 C-62.67 -9.99 -62.34 -10.98 -62 -12 C-56.47664596 -13.2080391 -51.00952152 -13.46723943 -45.375 -13.75 C-44.34503906 -13.81832031 -43.31507813 -13.88664063 -42.25390625 -13.95703125 C-27.52119662 -14.67976795 -11.7793864 -8.88666098 0 0 Z " fill="#FBF9F7" transform="translate(359,682)"/>
<path d="M0 0 C0.33 0 0.66 0 1 0 C1.495 5.94 1.495 5.94 2 12 C6.26511313 10.29395475 8.61418999 8.90212286 12 6 C12.99 6.495 12.99 6.495 14 7 C13.01 8.32 12.02 9.64 11 11 C11.495 11.99 11.495 11.99 12 13 C10.72171472 16.9319408 8.25477207 18.43922148 4.875 20.625 C3.21691513 21.70064146 1.581839 22.81508001 0 24 C0 24.66 0 25.32 0 26 C0.66 26.33 1.32 26.66 2 27 C1.01 29.31 0.02 31.62 -1 34 C-1.86625 33.484375 -2.7325 32.96875 -3.625 32.4375 C-7.55909378 30.76186746 -8.9232033 30.95803955 -13 32 C-15.87451789 33.48351706 -15.87451789 33.48351706 -18.75 35.4375 C-24.21271201 38.93734198 -29.77320747 42.21153078 -35.4375 45.375 C-36.19450195 45.80353271 -36.95150391 46.23206543 -37.73144531 46.67358398 C-41.74074848 48.90359219 -45.56483284 50.72076003 -50 52 C-50 52.66 -50 53.32 -50 54 C-51.32 54 -52.64 54 -54 54 C-54 54.66 -54 55.32 -54 56 C-53.01 56.33 -52.02 56.66 -51 57 C-53.3125 57.6875 -53.3125 57.6875 -56 58 C-57.875 56.9375 -57.875 56.9375 -59 55 C-58.6875 51.8125 -58.6875 51.8125 -58 49 C-58.66 48.67 -59.32 48.34 -60 48 C-55.25 45 -55.25 45 -53 45 C-53.08378906 44.20335937 -53.16757812 43.40671875 -53.25390625 42.5859375 C-54.26537786 32.06151142 -54.26537786 32.06151142 -53 27 C-52.67 27 -52.34 27 -52 27 C-51.67 30.63 -51.34 34.26 -51 38 C-50.34 38 -49.68 38 -49 38 C-48.67 37.34 -48.34 36.68 -48 36 C-47.01979625 34.9805881 -46.02196992 33.97753644 -45 33 C-45 33.66 -45 34.32 -45 35 C-44.01 35.33 -43.02 35.66 -42 36 C-43.32 36.66 -44.64 37.32 -46 38 C-46 38.66 -46 39.32 -46 40 C-40.99148377 39.42058342 -37.18186479 37.13373185 -32.875 34.6875 C-32.09962891 34.25324707 -31.32425781 33.81899414 -30.52539062 33.37158203 C-23.53742702 29.40903181 -16.75118217 25.14148964 -10.01904297 20.76049805 C-9.25994629 20.26976807 -8.50084961 19.77903809 -7.71875 19.2734375 C-7.04779297 18.83435059 -6.37683594 18.39526367 -5.68554688 17.94287109 C-4 17 -4 17 -2 17 C-1.1400133 11.34865884 -0.5381371 5.69051363 0 0 Z " fill="#F7F2F1" transform="translate(408,595)"/>
<path d="M0 0 C0.33 0.66 0.66 1.32 1 2 C4.45329726 3.72664863 7.15830842 4.21952523 11 4 C10.67 4.66 10.34 5.32 10 6 C13.60411085 6 16.01816338 5.58298335 19.4375 4.625 C20.82775391 4.24214844 20.82775391 4.24214844 22.24609375 3.8515625 C25.03014589 3.05693519 25.03014589 3.05693519 27.66015625 1.7734375 C28.43230469 1.51820313 29.20445312 1.26296875 30 1 C30.99 1.66 31.98 2.32 33 3 C32.67 3.99 32.34 4.98 32 6 C32.66 6 33.32 6 34 6 C33.390625 7.89453125 33.390625 7.89453125 32 10 C29.171875 11.01171875 29.171875 11.01171875 25.75 11.6875 C24.63109375 11.91824219 23.5121875 12.14898438 22.359375 12.38671875 C19.24395987 12.95546314 16.12605231 13.49320061 13 14 C13 14.99 13 15.98 13 17 C13.763125 16.814375 14.52625 16.62875 15.3125 16.4375 C20.30269322 15.84544318 25.02603203 16.42471901 30 17 C30 17.33 30 17.66 30 18 C17.625 18.495 17.625 18.495 5 19 C5 18.34 5 17.68 5 17 C4.01 16.67 3.02 16.34 2 16 C2.33 17.32 2.66 18.64 3 20 C2.34 20 1.68 20 1 20 C-3 16 -3 16 -4 12 C-7.3 12 -10.6 12 -14 12 C-14 11.67 -14 11.34 -14 11 C-13.31292969 10.91363281 -12.62585938 10.82726562 -11.91796875 10.73828125 C-6.25076742 10.01580411 -6.25076742 10.01580411 -1.9375 6.625 C-1.14895184 4.41706516 -0.42683827 2.30492667 0 0 Z M8 16 C12 17 12 17 12 17 Z " fill="#F5F0EF" transform="translate(294,651)"/>
<path d="M0 0 C4.08535179 1.22560554 7.34646584 2.67820295 10.875 5.0625 C18.03583371 9.75715446 25.51225427 13.85684333 33 18 C32.01 19.98 31.02 21.96 30 24 C26.66666667 22.66666667 23.33333333 21.33333333 20 20 C20 19.34 20 18.68 20 18 C18.69095703 17.61521484 18.69095703 17.61521484 17.35546875 17.22265625 C13.94544035 15.98011971 11.32289602 14.44862928 8.3125 12.4375 C5.48186691 10.5543264 3.23015525 9.07671842 0 8 C-1.22393475 5.04215769 -0.96516243 3.00272755 0 0 Z " fill="#F6F1F0" transform="translate(147,617)"/>
<path d="M0 0 C1.12775345 0.00212242 1.12775345 0.00212242 2.27828979 0.00428772 C4.6829626 0.0098916 7.08754277 0.02244468 9.4921875 0.03515625 C11.12109241 0.04017075 12.74999877 0.04473375 14.37890625 0.04882812 C18.37503577 0.05986228 22.37109592 0.07712946 26.3671875 0.09765625 C26.8621875 2.57265625 26.8621875 2.57265625 27.3671875 5.09765625 C17.65971875 10.55254121 1.87466761 8.64802875 -8.6328125 6.03515625 C-9.6228125 5.72578125 -10.6128125 5.41640625 -11.6328125 5.09765625 C-9.02337465 -0.68038469 -5.86500742 -0.04127565 0 0 Z " fill="#F8F5F2" transform="translate(264.6328125,661.90234375)"/>
<path d="M0 0 C3.40257916 1.45824821 5.47138868 3.31813951 8 6 C8.9075 6.86625 9.815 7.7325 10.75 8.625 C13 11 13 11 13 13 C11.02709413 15.34869747 9.99693138 16.00102287 7 17 C7 48.02 7 79.04 7 111 C6.67 111 6.34 111 6 111 C4.90412666 106.56447683 4.84178451 102.21788105 4.82641602 97.67724609 C4.819729 96.85228134 4.81304199 96.02731659 4.80615234 95.17735291 C4.7921399 93.3920474 4.78023386 91.60672438 4.77020454 89.82139206 C4.75375392 86.99728716 4.73051744 84.17331316 4.70530701 81.34927368 C4.63462133 73.32210833 4.57428079 65.29489183 4.52319336 57.26757812 C4.49144439 52.35342862 4.45018865 47.43943401 4.40299797 42.5254097 C4.38696432 40.65230712 4.37464907 38.77916895 4.36609077 36.9060173 C4.35396809 34.29183906 4.32983428 31.67802722 4.30297852 29.06396484 C4.30238937 28.28779312 4.30180023 27.5116214 4.30119324 26.71192932 C4.2497334 22.94125665 4.14412949 21.21619423 2 18 C2.875 15.3125 2.875 15.3125 4 13 C3.34 13 2.68 13 2 13 C1.67 11.68 1.34 10.36 1 9 C1.99 8.34 2.98 7.68 4 7 C3.67 5.68 3.34 4.36 3 3 C2.01 3.99 1.02 4.98 0 6 C-0.66 5.34 -1.32 4.68 -2 4 C-1.34 2.68 -0.68 1.36 0 0 Z " fill="#E3D8D6" transform="translate(392,260)"/>
<path d="M0 0 C0.33 0 0.66 0 1 0 C1.33 3.96 1.66 7.92 2 12 C6.26511313 10.29395475 8.61418999 8.90212286 12 6 C12.66 6.33 13.32 6.66 14 7 C13.01 8.32 12.02 9.64 11 11 C11.33 11.66 11.66 12.32 12 13 C10.72171472 16.9319408 8.25477207 18.43922148 4.875 20.625 C3.21691513 21.70064146 1.581839 22.81508001 0 24 C0 24.66 0 25.32 0 26 C0.66 26.33 1.32 26.66 2 27 C1.01 29.31 0.02 31.62 -1 34 C-2.65 33.01 -4.3 32.02 -6 31 C-5.835 30.38125 -5.67 29.7625 -5.5 29.125 C-4.89002758 26.5326172 -4.95927806 25.15881558 -5.625 22.5625 C-6 20 -6 20 -4 17 C-3.34 17 -2.68 17 -2 17 C-1.1400133 11.34865884 -0.5381371 5.69051363 0 0 Z " fill="#F5F0EF" transform="translate(408,595)"/>
<path d="M0 0 C0.33 0 0.66 0 1 0 C1.33 3.63 1.66 7.26 2 11 C2.66 11 3.32 11 4 11 C4.33 10.34 4.66 9.68 5 9 C5.98020375 7.9805881 6.97803008 6.97753644 8 6 C8 6.66 8 7.32 8 8 C8.99 8.33 9.98 8.66 11 9 C9.02 9.99 9.02 9.99 7 11 C7 11.66 7 12.32 7 13 C7.66 13.66 8.32 14.32 9 15 C8.195625 15.5775 7.39125 16.155 6.5625 16.75 C4.02133261 18.98126893 3.34879632 19.74456771 3 23 C4.98 22.67 6.96 22.34 9 22 C5.25 25 5.25 25 3 25 C3 25.66 3 26.32 3 27 C1.68 27 0.36 27 -1 27 C-1 27.66 -1 28.32 -1 29 C-0.01 29.33 0.98 29.66 2 30 C-0.3125 30.6875 -0.3125 30.6875 -3 31 C-4.875 29.9375 -4.875 29.9375 -6 28 C-5.6875 24.8125 -5.6875 24.8125 -5 22 C-5.66 21.67 -6.32 21.34 -7 21 C-2.25 18 -2.25 18 0 18 C-0.08378906 17.20335937 -0.16757812 16.40671875 -0.25390625 15.5859375 C-1.26537786 5.06151142 -1.26537786 5.06151142 0 0 Z " fill="#E4DAD9" transform="translate(355,622)"/>
<path d="M0 0 C-0.99 2.97 -1.98 5.94 -3 9 C-6.3 9.66 -9.6 10.32 -13 11 C-13 11.66 -13 12.32 -13 13 C-14.65 13.33 -16.3 13.66 -18 14 C-18 13.01 -18 12.02 -18 11 C-18.66 11 -19.32 11 -20 11 C-20.33 9.35 -20.66 7.7 -21 6 C-16.03805279 3.95928267 -11.06287463 1.96568036 -6 0.1875 C-5.278125 -0.06644531 -4.55625 -0.32039062 -3.8125 -0.58203125 C-2 -1 -2 -1 0 0 Z " fill="#F2ECEB" transform="translate(346,646)"/>
<path d="M0 0 C0.66 0.33 1.32 0.66 2 1 C2 1.66 2 2.32 2 3 C2.66 3.66 3.32 4.32 4 5 C-2.96085386 10.71689899 -9.95280278 16.3897584 -17 22 C-17.66 21.01 -18.32 20.02 -19 19 C-16.18227139 12.66011062 -11.68980192 8.72251791 -6.25 4.6875 C-5.64800781 4.23310547 -5.04601562 3.77871094 -4.42578125 3.31054688 C-2.95473262 2.20142291 -1.47794588 1.09991637 0 0 Z " fill="#F5EFEE" transform="translate(437,588)"/>
<path d="M0 0 C2 2 2 2 4 5 C4.66 5.33 5.32 5.66 6 6 C6.33 5.34 6.66 4.68 7 4 C7 4.66 7 5.32 7 6 C8.98 5.67 10.96 5.34 13 5 C12.5625 7.25 12.5625 7.25 11 10 C6.94056337 12.41500731 2.59264899 13.95145 -2 15 C-2.22577402 9.5814234 -1.46670113 5.22512279 0 0 Z " fill="#F5F1EE" transform="translate(121,230)"/>
<path d="M0 0 C0.33 0.66 0.66 1.32 1 2 C4.45329726 3.72664863 7.15830842 4.21952523 11 4 C10.67 4.66 10.34 5.32 10 6 C9.34 6 8.68 6 8 6 C8.33 6.99 8.66 7.98 9 9 C8.26394531 9.04898438 7.52789062 9.09796875 6.76953125 9.1484375 C5.79371094 9.22320313 4.81789063 9.29796875 3.8125 9.375 C2.84957031 9.44460938 1.88664062 9.51421875 0.89453125 9.5859375 C-2.02522838 10.00360892 -4.28350336 10.89195532 -7 12 C-9.3320802 12.07646165 -11.66845878 12.09143299 -14 12 C-14 11.67 -14 11.34 -14 11 C-13.31292969 10.91363281 -12.62585938 10.82726562 -11.91796875 10.73828125 C-6.25076742 10.01580411 -6.25076742 10.01580411 -1.9375 6.625 C-1.14895184 4.41706516 -0.42683827 2.30492667 0 0 Z " fill="#DED2CF" transform="translate(294,651)"/>
<path d="M0 0 C0.33 0 0.66 0 1 0 C1.125 4.75 1.125 4.75 0 7 C-0.66 7 -1.32 7 -2 7 C-2.309375 7.78375 -2.61875 8.5675 -2.9375 9.375 C-4 12 -4 12 -5 14 C-5.66 14 -6.32 14 -7 14 C-7.33 14.66 -7.66 15.32 -8 16 C-10 16 -12 16 -14 16 C-14.33 15.01 -14.66 14.02 -15 13 C-12.427824 11.4566944 -9.85823981 9.91945444 -7.25 8.4375 C-4.88495578 7.19737444 -4.88495578 7.19737444 -4 5 C-3.34 5 -2.68 5 -2 5 C-1.34 3.35 -0.68 1.7 0 0 Z " fill="#FBFAF8" transform="translate(365,336)"/>
<path d="M0 0 C4.10839064 1.45002023 7.50344613 3.3979134 11 6 C11 6.66 11 7.32 11 8 C10.15695312 8.27714844 9.31390625 8.55429687 8.4453125 8.83984375 C6.80175781 9.38318359 6.80175781 9.38318359 5.125 9.9375 C4.03445313 10.29714844 2.94390625 10.65679688 1.8203125 11.02734375 C-0.90758682 11.89914074 -0.90758682 11.89914074 -3 13 C-3 12.34 -3 11.68 -3 11 C-3.66 11 -4.32 11 -5 11 C-5 10.34 -5 9.68 -5 9 C-3.125 8.375 -3.125 8.375 -1 8 C-0.34 8.66 0.32 9.32 1 10 C0.67 8.68 0.34 7.36 0 6 C0.99 5.67 1.98 5.34 3 5 C3.22609337 2.87635519 3.22609337 2.87635519 1.5 1.375 C1.005 0.92125 0.51 0.4675 0 0 Z " fill="#E2D4D2" transform="translate(489,623)"/>
<path d="M0 0 C0.33 0 0.66 0 1 0 C1.14442681 5.88577651 1.28675358 11.77159896 1.42724609 17.6574707 C1.47519017 19.65422898 1.52367961 21.65097426 1.57275391 23.64770508 C1.83746751 34.43343372 2.09209991 45.21023934 2 56 C1.01 56 0.02 56 -1 56 C-0.67 37.52 -0.34 19.04 0 0 Z " fill="#FBF2E8" transform="translate(217,484)"/>
<path d="M0 0 C0 1.65 0 3.3 0 5 C-0.66 4.67 -1.32 4.34 -2 4 C-2.66 4.66 -3.32 5.32 -4 6 C-5.80635246 7.49764557 -7.62063574 8.98475795 -9.44140625 10.46484375 C-11.26018998 12.02394237 -11.26018998 12.02394237 -12 15 C-13.66270287 16.33827304 -15.32916181 17.67189785 -17 19 C-17 19.66 -17 20.32 -17 21 C-17.66 21 -18.32 21 -19 21 C-19.33 21.66 -19.66 22.32 -20 23 C-20.66 23 -21.32 23 -22 23 C-21 21 -20 19 -19 17 C-18.34 17 -17.68 17 -17 17 C-16.95875 16.443125 -16.9175 15.88625 -16.875 15.3125 C-15.77617242 12.40845568 -13.9716587 11.10739391 -11.55859375 9.23828125 C-9.81032175 7.90327783 -9.81032175 7.90327783 -7.75 5.6875 C-6 4 -6 4 -4 4 C-3.67 3.01 -3.34 2.02 -3 1 C-1 0 -1 0 0 0 Z " fill="#ECE3E2" transform="translate(509,498)"/>
<path d="M0 0 C0.99 1.485 0.99 1.485 2 3 C1.01 4.485 1.01 4.485 0 6 C-4.571279 5.45144652 -8.67435795 4.58255197 -13 3 C-13 2.34 -13 1.68 -13 1 C-7.93905481 -1.6316915 -5.39387595 -2.75965746 0 0 Z " fill="#F1EAE8" transform="translate(199,310)"/>
<path d="M0 0 C1.32 0.33 2.64 0.66 4 1 C4 1.66 4 2.32 4 3 C5.32 3.66 6.64 4.32 8 5 C5.44008376 7.01136276 2.95409701 8.62845496 0 10 C-1.89213369 7.61426621 -3.02391783 5.92824652 -4 3 C-2.68 2.67 -1.36 2.34 0 2 C0 1.34 0 0.68 0 0 Z " fill="#F1EBE9" transform="translate(263,169)"/>
<path d="M0 0 C-1.98 0.33 -3.96 0.66 -6 1 C-6 1.99 -6 2.98 -6 4 C-5.236875 3.814375 -4.47375 3.62875 -3.6875 3.4375 C1.30269322 2.84544318 6.02603203 3.42471901 11 4 C11 4.33 11 4.66 11 5 C-1.375 5.495 -1.375 5.495 -14 6 C-14 5.34 -14 4.68 -14 4 C-14.66 3.34 -15.32 2.68 -16 2 C-13.89829344 1.46932659 -11.79352402 0.95077143 -9.6875 0.4375 C-7.92986328 0.00244141 -7.92986328 0.00244141 -6.13671875 -0.44140625 C-3 -1 -3 -1 0 0 Z M-11 3 C-7 4 -7 4 -7 4 Z " fill="#AD9394" transform="translate(313,664)"/>
<path d="M0 0 C5.0302076 0.52537724 10.01885239 1.10594786 15 2 C14.360625 2.268125 13.72125 2.53625 13.0625 2.8125 C10.66868314 3.88667752 10.66868314 3.88667752 10 7 C7.05610218 8.17755913 6.10046087 8.03348696 3 7 C2.67 6.01 2.34 5.02 2 4 C1.01 3.34 0.02 2.68 -1 2 C1.97 2.495 1.97 2.495 5 3 C5 2.34 5 1.68 5 1 C3.35 1 1.7 1 0 1 C0 0.67 0 0.34 0 0 Z " fill="#F2ECE9" transform="translate(298,123)"/>
<path d="M0 0 C0.66 0.33 1.32 0.66 2 1 C0.625 2.5 0.625 2.5 -1 4 C-1.66 4 -2.32 4 -3 4 C-3.185625 4.763125 -3.37125 5.52625 -3.5625 6.3125 C-5.96704456 10.80795287 -10.38572945 11.46190982 -15 13 C-15.309375 13.639375 -15.61875 14.27875 -15.9375 14.9375 C-17.2342338 17.45468915 -18.4221737 17.96886948 -21 19 C-19.66019868 15.93759697 -18.27130227 14.10829099 -15.6875 12 C-15.06488281 11.48695313 -14.44226563 10.97390625 -13.80078125 10.4453125 C-12.90939453 9.72988281 -12.90939453 9.72988281 -12 9 C-10.700625 7.948125 -10.700625 7.948125 -9.375 6.875 C-8.59125 6.25625 -7.8075 5.6375 -7 5 C-6.113125 4.278125 -5.22625 3.55625 -4.3125 2.8125 C-2 1 -2 1 0 0 Z " fill="#E8DFDD" transform="translate(193,678)"/>
<path d="M0 0 C0.8971875 0.309375 0.8971875 0.309375 1.8125 0.625 C-0.1675 1.945 -2.1475 3.265 -4.1875 4.625 C-3.1975 6.935 -2.2075 9.245 -1.1875 11.625 C-4.50312557 11.07239574 -7.33812207 10.45674295 -10.1875 8.625 C-10.5175 7.635 -10.8475 6.645 -11.1875 5.625 C-2.1875 -0.375 -2.1875 -0.375 0 0 Z " fill="#ECE3E1" transform="translate(59.1875,622.375)"/>
<path d="M0 0 C0.66 0 1.32 0 2 0 C2.703125 1.734375 2.703125 1.734375 3 4 C1.671875 6.140625 1.671875 6.140625 -0.25 8.25 C-0.87390625 8.95640625 -1.4978125 9.6628125 -2.140625 10.390625 C-4 12 -4 12 -7 12 C-7.3125 9.6875 -7.3125 9.6875 -7 7 C-4.625 5.4375 -4.625 5.4375 -2 4 C-0.67206394 1.93299345 -0.67206394 1.93299345 0 0 Z " fill="#EAE0DF" transform="translate(336,515)"/>
<path d="M0 0 C0.66 0.99 1.32 1.98 2 3 C1.34 3.66 0.68 4.32 0 5 C0.99 6.485 0.99 6.485 2 8 C1.01 8.33 0.02 8.66 -1 9 C-2.69882448 11.49759982 -2.69882448 11.49759982 -4 14 C-4.66 13.67 -5.32 13.34 -6 13 C-6 12.67 -6 12.34 -6 12 C-6.66 11.67 -7.32 11.34 -8 11 C-7.21718695 9.66144944 -6.42348123 8.32926356 -5.625 7 C-5.18414062 6.2575 -4.74328125 5.515 -4.2890625 4.75 C-3.86367187 4.1725 -3.43828125 3.595 -3 3 C-2.34 3 -1.68 3 -1 3 C-0.67 2.01 -0.34 1.02 0 0 Z " fill="#F6F3EF" transform="translate(147,178)"/>
<path d="M0 0 C0.8971875 0.309375 0.8971875 0.309375 1.8125 0.625 C1.8125 2.625 1.8125 4.625 1.8125 6.625 C-0.8275 7.285 -3.4675 7.945 -6.1875 8.625 C-6.1875 4.625 -6.1875 4.625 -5.1875 1.625 C-2.1875 -0.375 -2.1875 -0.375 0 0 Z " fill="#FBF9F8" transform="translate(364.1875,637.375)"/>
<path d="M0 0 C0.66 0.33 1.32 0.66 2 1 C1.67 1.99 1.34 2.98 1 4 C-0.9375 4.5625 -0.9375 4.5625 -3 5 C-5.1385485 7.1385485 -5.42655063 8.13275314 -6 11 C-9.75 12.125 -9.75 12.125 -12 11 C-11.67 9.68 -11.34 8.36 -11 7 C-10.01 7 -9.02 7 -8 7 C-8 6.34 -8 5.68 -8 5 C-6.68 4.67 -5.36 4.34 -4 4 C-4 3.34 -4 2.68 -4 2 C-2.125 0.9375 -2.125 0.9375 0 0 Z " fill="#F3EDEA" transform="translate(166,237)"/>
<path d="M0 0 C0.99 0.33 1.98 0.66 3 1 C2.01 6.28 1.02 11.56 0 17 C-0.50490345 14.98038621 -1.00953488 12.96066863 -1.5 10.9375 C-2.27137101 7.94843732 -2.78101407 6.21898593 -5 4 C-4.360625 3.71125 -3.72125 3.4225 -3.0625 3.125 C-0.84793921 2.17176549 -0.84793921 2.17176549 0 0 Z " fill="#D6C9C7" transform="translate(345,580)"/>
<path d="M0 0 C-1.47692308 6.64615385 -1.47692308 6.64615385 -4.125 8.4375 C-4.74375 8.623125 -5.3625 8.80875 -6 9 C-6.33 8.01 -6.66 7.02 -7 6 C-8.32 7.32 -9.64 8.64 -11 10 C-11.66 9.34 -12.32 8.68 -13 8 C-11.2126038 6.66094733 -9.41995047 5.32890934 -7.625 4 C-6.62726563 3.2575 -5.62953125 2.515 -4.6015625 1.75 C-2 0 -2 0 0 0 Z " fill="#EBE2E0" transform="translate(209,209)"/>
<path d="M0 0 C4.75 0.75 4.75 0.75 7 3 C6.01 3.66 5.02 4.32 4 5 C4.33 5.66 4.66 6.32 5 7 C2 8 2 8 -1 8 C-1.66 9.65 -2.32 11.3 -3 13 C-3.66 12.67 -4.32 12.34 -5 12 C-4.54625 10.948125 -4.0925 9.89625 -3.625 8.8125 C-2.37239999 5.89174547 -1.16489979 2.95705332 0 0 Z " fill="#E7DEDC" transform="translate(130,203)"/>
<path d="M0 0 C1.32 0.99 2.64 1.98 4 3 C3.01 5.31 2.02 7.62 1 10 C-0.65 9.01 -2.3 8.02 -4 7 C-3.43628586 3.73045798 -2.50037734 2.17424117 0 0 Z " fill="#E4D9D6" transform="translate(406,619)"/>
<path d="M0 0 C1.98 0.66 3.96 1.32 6 2 C5.67 2.99 5.34 3.98 5 5 C4.34 5 3.68 5 3 5 C2.566875 5.928125 2.566875 5.928125 2.125 6.875 C1 9 1 9 -1 11 C-1.66 9.35 -2.32 7.7 -3 6 C-2.505 5.566875 -2.01 5.13375 -1.5 4.6875 C0.33218192 3.00259517 0.33218192 3.00259517 0 0 Z " fill="#EFE5E3" transform="translate(324,129)"/>
<path d="M0 0 C0 3.86695678 -1.41909971 6.5088452 -3 10 C-4.98 10 -6.96 10 -9 10 C-7.63842622 4.70499087 -4.39656045 2.76254467 0 0 Z " fill="#EADFDE" transform="translate(112,663)"/>
<path d="M0 0 C0.66 0.33 1.32 0.66 2 1 C1.175 1.598125 0.35 2.19625 -0.5 2.8125 C-1.325 3.534375 -2.15 4.25625 -3 5 C-3 5.99 -3 6.98 -3 8 C-3.7425 8.268125 -4.485 8.53625 -5.25 8.8125 C-7.86636554 9.94229421 -9.80187111 11.20893202 -12 13 C-12.66 12.67 -13.32 12.34 -14 12 C-12.41856529 10.56041153 -10.83477221 9.12341355 -9.25 7.6875 C-8.36828125 6.88699219 -7.4865625 6.08648437 -6.578125 5.26171875 C-4.44550672 3.39083089 -2.29812057 1.65915714 0 0 Z " fill="#F2EAE5" transform="translate(177,149)"/>
<path d="M0 0 C-0.11391632 2.60508636 -0.24065548 5.20845546 -0.375 7.8125 C-0.4059375 8.55048828 -0.436875 9.28847656 -0.46875 10.04882812 C-0.67346148 13.81893115 -0.86433827 15.79650741 -3 19 C-2.96519531 18.09636719 -2.93039062 17.19273437 -2.89453125 16.26171875 C-2.86746094 15.08222656 -2.84039062 13.90273438 -2.8125 12.6875 C-2.77769531 11.51574219 -2.74289062 10.34398437 -2.70703125 9.13671875 C-2.71282601 6.00711536 -2.71282601 6.00711536 -4.51171875 4.08203125 C-5.00285156 3.72496094 -5.49398438 3.36789062 -6 3 C-2.25 0 -2.25 0 0 0 Z " fill="#D4C4C1" transform="translate(402,549)"/>
<path d="M0 0 C0.33 0.66 0.66 1.32 1 2 C0.67 2.66 0.34 3.32 0 4 C0.99 3.67 1.98 3.34 3 3 C3 6.10551666 2.4606285 7.35261084 1 10 C0.38125 9.814375 -0.2375 9.62875 -0.875 9.4375 C-3.04160178 8.76313824 -3.04160178 8.76313824 -5 10 C-4.34 8.02 -3.68 6.04 -3 4 C-2.34 4 -1.68 4 -1 4 C-0.67 2.68 -0.34 1.36 0 0 Z " fill="#EBE4E3" transform="translate(309,612)"/>
<path d="M0 0 C1.2065625 0.0309375 1.2065625 0.0309375 2.4375 0.0625 C2.7675 0.7225 3.0975 1.3825 3.4375 2.0625 C2.7775 2.0625 2.1175 2.0625 1.4375 2.0625 C2.7575 3.7125 4.0775 5.3625 5.4375 7.0625 C0.82896203 6.34241594 -3.23487409 4.74954061 -7.5625 3.0625 C-6.923125 2.753125 -6.28375 2.44375 -5.625 2.125 C-1.57454819 0.03840361 -1.57454819 0.03840361 0 0 Z " fill="#E1D5D4" transform="translate(70.5625,555.9375)"/>
<path d="M0 0 C0.66 0.33 1.32 0.66 2 1 C1.2265625 2.175625 1.2265625 2.175625 0.4375 3.375 C-0.036875 4.24125 -0.51125 5.1075 -1 6 C-0.67 6.66 -0.34 7.32 0 8 C-1.8125 8.6875 -1.8125 8.6875 -4 9 C-5.75 7.6875 -5.75 7.6875 -7 6 C-7 5.34 -7 4.68 -7 4 C-1.7265625 0.77734375 -1.7265625 0.77734375 0 0 Z " fill="#F2EBE9" transform="translate(220,201)"/>
<path d="M0 0 C0.928125 0.33 1.85625 0.66 2.8125 1 C5.92029291 2.14967004 5.92029291 2.14967004 9 2 C9 2.99 9 3.98 9 5 C6.75 6.1875 6.75 6.1875 4 7 C1.6875 5.875 1.6875 5.875 0 4 C0 2.68 0 1.36 0 0 Z " fill="#E2D4CF" transform="translate(138,621)"/>
<path d="M0 0 C3.21852831 0.63065757 5.50801069 1.78020695 8.25 3.5625 C8.95640625 4.01753906 9.6628125 4.47257813 10.390625 4.94140625 C11.18726563 5.46541016 11.18726563 5.46541016 12 6 C11.01 7.485 11.01 7.485 10 9 C9.34 9 8.68 9 8 9 C7.195625 8.175 6.39125 7.35 5.5625 6.5 C3.23877584 3.65083807 3.23877584 3.65083807 0 4 C-0.33 3.34 -0.66 2.68 -1 2 C-0.67 1.34 -0.34 0.68 0 0 Z " fill="#F4EEEA" transform="translate(350,230)"/>
<path d="M0 0 C0.66 0.33 1.32 0.66 2 1 C2 4.33333333 2 7.66666667 2 11 C0.02 11.66 -1.96 12.32 -4 13 C-2.68 8.71 -1.36 4.42 0 0 Z " fill="#EDE5E2" transform="translate(58,144)"/>
<path d="M0 0 C4.81938524 -0.23509196 8.46298506 0.54815522 13 2 C12.01 2.495 12.01 2.495 11 3 C11 3.99 11 4.98 11 6 C6.95743617 4.77782954 3.50711041 3.37245704 0 1 C0 0.67 0 0.34 0 0 Z " fill="#F5EEE9" transform="translate(18,588)"/>
<path d="M0 0 C2.475 0.495 2.475 0.495 5 1 C5 1.99 5 2.98 5 4 C5.99 3.67 6.98 3.34 8 3 C8 3.66 8 4.32 8 5 C5.69 6.32 3.38 7.64 1 9 C0.67 6.03 0.34 3.06 0 0 Z " fill="#ECE1DF" transform="translate(313,532)"/>
<path d="M0 0 C0.33 1.32 0.66 2.64 1 4 C2.65 3.67 4.3 3.34 6 3 C5.375 4.9375 5.375 4.9375 4 7 C1.0625 7.625 1.0625 7.625 -2 8 C-2.99 8.66 -3.98 9.32 -5 10 C-3.84414715 6.08788267 -2.64465038 3.1254959 0 0 Z " fill="#D8CDCC" transform="translate(33,390)"/>
<path d="M0 0 C0.66 0.33 1.32 0.66 2 1 C0.7260411 3.03833424 -0.61061923 5.03852126 -2 7 C-2.66 7 -3.32 7 -4 7 C-4.66 8.32 -5.32 9.64 -6 11 C-7.32 10.34 -8.64 9.68 -10 9 C-9.0925 8.2575 -8.185 7.515 -7.25 6.75 C-4.6930577 4.62325416 -2.30889807 2.39770184 0 0 Z " fill="#E4D7D6" transform="translate(127,49)"/>
<path d="M0 0 C1.32 0.33 2.64 0.66 4 1 C4 1.99 4 2.98 4 4 C1.5 6.1875 1.5 6.1875 -1 8 C-1 7.01 -1 6.02 -1 5 C-1.66 5 -2.32 5 -3 5 C-2.67 4.01 -2.34 3.02 -2 2 C-1.34 2 -0.68 2 0 2 C0 1.34 0 0.68 0 0 Z " fill="#F2ECEA" transform="translate(421,589)"/>
<path d="M0 0 C0 5 0 5 -1.1875 6.3125 C-1.785625 6.869375 -2.38375 7.42625 -3 8 C-3.845625 8.86625 -4.69125 9.7325 -5.5625 10.625 C-8 13 -8 13 -10 14 C-8.66666667 11.33333333 -7.33333333 8.66666667 -6 6 C-5.34 6 -4.68 6 -4 6 C-3.71125 5.38125 -3.4225 4.7625 -3.125 4.125 C-2 2 -2 2 0 0 Z " fill="#E3D8D7" transform="translate(380,564)"/>
<path d="M0 0 C2.31 0.33 4.62 0.66 7 1 C7 5.38968456 4.87194899 6.76905739 2 10 C1.34 9.34 0.68 8.68 0 8 C0.66 8 1.32 8 2 8 C2.33 6.68 2.66 5.36 3 4 C2.01 3.34 1.02 2.68 0 2 C0 1.34 0 0.68 0 0 Z " fill="#E4D6D3" transform="translate(243,668)"/>
<path d="M0 0 C2.4375 0.6875 2.4375 0.6875 5 2 C5.8125 4.625 5.8125 4.625 6 7 C3 7 3 7 0.3125 4.5 C-0.450625 3.675 -1.21375 2.85 -2 2 C-1.34 2 -0.68 2 0 2 C0 1.34 0 0.68 0 0 Z " fill="#F6EFEC" transform="translate(255,412)"/>
<path d="M0 0 C0.66 0.33 1.32 0.66 2 1 C2 2.65 2 4.3 2 6 C-2.75 7.125 -2.75 7.125 -5 6 C-4.67 6.99 -4.34 7.98 -4 9 C-5.65 9 -7.3 9 -9 9 C-8.67 8.34 -8.34 7.68 -8 7 C-7.34 7 -6.68 7 -6 7 C-6 6.34 -6 5.68 -6 5 C-5.38125 4.731875 -4.7625 4.46375 -4.125 4.1875 C-1.7004767 3.04443152 -1.7004767 3.04443152 0 0 Z " fill="#ECE2DE" transform="translate(148,249)"/>
<path d="M0 0 C-0.66 2.97 -1.32 5.94 -2 9 C-3 6 -3 6 -2 3 C-3.65 3.33 -5.3 3.66 -7 4 C-6.625 2.0625 -6.625 2.0625 -6 0 C-4 -1 -4 -1 0 0 Z " fill="#EAE3E0" transform="translate(312,157)"/>
<path d="M0 0 C0.66 0.99 1.32 1.98 2 3 C-0.64 3.66 -3.28 4.32 -6 5 C-6 4.01 -6 3.02 -6 2 C-6.66 1.34 -7.32 0.68 -8 0 C-5.06791253 -1.46604374 -3.11702298 -0.77925574 0 0 Z " fill="#E9DFDC" transform="translate(443,669)"/>
<path d="M0 0 C2.25 -0.25 2.25 -0.25 5 0 C7.3125 2 7.3125 2 9 4 C8.01 4 7.02 4 6 4 C5.67 4.66 5.34 5.32 5 6 C2.5 4.6875 2.5 4.6875 0 3 C0 2.01 0 1.02 0 0 Z " fill="#F0EAE8" transform="translate(413,652)"/>
<path d="M0 0 C2.475 0.495 2.475 0.495 5 1 C5.33 1.99 5.66 2.98 6 4 C8.00016466 5.20882096 8.00016466 5.20882096 10 6 C10 6.99 10 7.98 10 9 C5.68679932 7.24277009 2.0968916 4.1937832 0 0 Z " fill="#E5D5CD" transform="translate(110,582)"/>
<path d="M0 0 C2.125 0.375 2.125 0.375 4 1 C4 1.66 4 2.32 4 3 C2.5390625 4.21875 2.5390625 4.21875 0.625 5.5 C-1.48267274 6.92246226 -3.19154973 8.19154973 -5 10 C-5.33 9.01 -5.66 8.02 -6 7 C-5.34 7 -4.68 7 -4 7 C-3.71125 6.21625 -3.4225 5.4325 -3.125 4.625 C-2 2 -2 2 0 0 Z " fill="#F3EDE9" transform="translate(150,135)"/>
<path d="M0 0 C1.32 0.66 2.64 1.32 4 2 C4 2.66 4 3.32 4 4 C4.66 4.33 5.32 4.66 6 5 C6 6.32 6 7.64 6 9 C5.34 9 4.68 9 4 9 C-0.42307692 4.57692308 -0.42307692 4.57692308 -1 1 C-0.67 0.67 -0.34 0.34 0 0 Z " fill="#DDD2CE" transform="translate(291,662)"/>
<path d="M0 0 C0 0.99 0 1.98 0 3 C-0.66 3 -1.32 3 -2 3 C-1.67 3.99 -1.34 4.98 -1 6 C-1.99 6.495 -1.99 6.495 -3 7 C-3.99 8.485 -3.99 8.485 -5 10 C-5.99 9.34 -6.98 8.68 -8 8 C-7.67 7.01 -7.34 6.02 -7 5 C-6.34 5 -5.68 5 -5 5 C-5 4.34 -5 3.68 -5 3 C-2.46153846 0 -2.46153846 0 0 0 Z " fill="#EBE3E1" transform="translate(322,599)"/>
<path d="M0 0 C0.33 0.66 0.66 1.32 1 2 C-1 4 -1 4 -3 5 C-2.01 6.98 -1.02 8.96 0 11 C-3.16115776 9.63016497 -3.9927092 9.0109362 -6 6 C-6 4.68 -6 3.36 -6 2 C-4.02 1.34 -2.04 0.68 0 0 Z " fill="#DBCDC9" transform="translate(8,570)"/>
<path d="M0 0 C-1.44126786 3.36295835 -3.20592655 5.62927102 -6 8 C-6.99 8 -7.98 8 -9 8 C-7.13554727 3.64961029 -5.02378599 0 0 0 Z " fill="#F5F2F0" transform="translate(377,574)"/>
<path d="M0 0 C2.0625 0.4375 2.0625 0.4375 4 1 C3.01 1.33 2.02 1.66 1 2 C1 2.99 1 3.98 1 5 C0.34 5 -0.32 5 -1 5 C-1.33 5.99 -1.66 6.98 -2 8 C-2.99 7.67 -3.98 7.34 -5 7 C-5.33 6.01 -5.66 5.02 -6 4 C-5.195625 3.525625 -4.39125 3.05125 -3.5625 2.5625 C-1.15246512 1.23099846 -1.15246512 1.23099846 0 0 Z " fill="#EEEBE9" transform="translate(10,570)"/>
<path d="M0 0 C0.99 0 1.98 0 3 0 C3.8125 1.6875 3.8125 1.6875 4 4 C1.5625 6.75 1.5625 6.75 -1 9 C-1.80967438 6.08517222 -2.21845993 4.53886783 -1.0625 1.6875 C-0.711875 1.130625 -0.36125 0.57375 0 0 Z " fill="#F3EEEC" transform="translate(524,524)"/>
<path d="M0 0 C2.99324263 1.0975223 3.84610901 1.67682892 5.25 4.625 C5.4975 5.40875 5.745 6.1925 6 7 C4.6875 8.5 4.6875 8.5 3 10 C2.01 10 1.02 10 0 10 C0 8.68 0 7.36 0 6 C0.66 5.67 1.32 5.34 2 5 C2 4.34 2 3.68 2 3 C1.34 2.67 0.68 2.34 0 2 C0 1.34 0 0.68 0 0 Z " fill="#E7DBD9" transform="translate(399,266)"/>
<path d="M0 0 C0.66 0.33 1.32 0.66 2 1 C1.01 1.33 0.02 1.66 -1 2 C-0.67 2.99 -0.34 3.98 0 5 C-3.3 5.33 -6.6 5.66 -10 6 C-6.77413155 2.77413155 -4.2488305 1.54502927 0 0 Z " fill="#A68A8C" transform="translate(303,655)"/>
<path d="M0 0 C0.33 0 0.66 0 1 0 C1.33 3.96 1.66 7.92 2 12 C3.32 11.67 4.64 11.34 6 11 C6 11.66 6 12.32 6 13 C4.03533587 14.06775224 2.03144641 15.06553465 0 16 C-0.66 15.67 -1.32 15.34 -2 15 C-1.855625 14.38125 -1.71125 13.7625 -1.5625 13.125 C-0.77943337 8.77462983 -0.40153341 4.39978093 0 0 Z " fill="#CDB8B3" transform="translate(408,595)"/>
<path d="M0 0 C0.33 0.66 0.66 1.32 1 2 C0.67 2.66 0.34 3.32 0 4 C0.66 4 1.32 4 2 4 C2 5.98 2 7.96 2 10 C0.68 10 -0.64 10 -2 10 C-3 8 -3 8 -2.44140625 6.0546875 C-2.15136719 5.33539062 -1.86132812 4.61609375 -1.5625 3.875 C-1.27503906 3.15054688 -0.98757813 2.42609375 -0.69140625 1.6796875 C-0.46324219 1.12539063 -0.23507812 0.57109375 0 0 Z " fill="#E8E0DD" transform="translate(475,544)"/>
<path d="M0 0 C0.33 0 0.66 0 1 0 C1.33 4.29 1.66 8.58 2 13 C1.01 12.67 0.02 12.34 -1 12 C-1.14285714 3.42857143 -1.14285714 3.42857143 0 0 Z " fill="#E5D8D4" transform="translate(51,336)"/>
<path d="M0 0 C1.98 0 3.96 0 6 0 C5.67 0.99 5.34 1.98 5 3 C5.66 3.33 6.32 3.66 7 4 C5.68 4 4.36 4 3 4 C2.67 4.66 2.34 5.32 2 6 C0.68 4.68 -0.64 3.36 -2 2 C-1.34 2 -0.68 2 0 2 C0 1.34 0 0.68 0 0 Z " fill="#F3EBEA" transform="translate(300,324)"/>
<path d="M0 0 C2 1 2 1 3 2 C3.66 2.33 4.32 2.66 5 3 C-0.41538462 6.07692308 -0.41538462 6.07692308 -3.375 5.6875 C-3.91125 5.460625 -4.4475 5.23375 -5 5 C-4.34 5 -3.68 5 -3 5 C-3 4.34 -3 3.68 -3 3 C-3.66 2.67 -4.32 2.34 -5 2 C-2.625 0.9375 -2.625 0.9375 0 0 Z " fill="#E2D4D2" transform="translate(346,309)"/>
<path d="M0 0 C0.763125 0.309375 1.52625 0.61875 2.3125 0.9375 C4.18789677 1.67893593 6.08684652 2.36228217 8 3 C8 3.66 8 4.32 8 5 C7.34 5 6.68 5 6 5 C5.67 5.99 5.34 6.98 5 8 C4.34 7.67 3.68 7.34 3 7 C3.33 6.34 3.66 5.68 4 5 C3.01 5 2.02 5 1 5 C0.67 3.35 0.34 1.7 0 0 Z " fill="#E4D7D5" transform="translate(422,36)"/>
<path d="M0 0 C0.66 0.33 1.32 0.66 2 1 C1.67 1.66 1.34 2.32 1 3 C1.33 3.99 1.66 4.98 2 6 C0.35 6.33 -1.3 6.66 -3 7 C-3.66 5.68 -4.32 4.36 -5 3 C-2.625 1.4375 -2.625 1.4375 0 0 Z " fill="#F2ECEA" transform="translate(239,188)"/>
<path d="M0 0 C-0.33 1.65 -0.66 3.3 -1 5 C-1.66 5 -2.32 5 -3 5 C-3 5.66 -3 6.32 -3 7 C-4.32 7 -5.64 7 -7 7 C-6.75 4.625 -6.75 4.625 -6 2 C-3.84898936 0.54286376 -2.59713506 0 0 0 Z " fill="#F1E9E7" transform="translate(361,103)"/>
<path d="M0 0 C2.5625 0.25 2.5625 0.25 5 1 C5.33 1.66 5.66 2.32 6 3 C5.195625 3.12375 4.39125 3.2475 3.5625 3.375 C2.2940625 3.684375 2.2940625 3.684375 1 4 C0.67 4.66 0.34 5.32 0 6 C-0.66 4.68 -1.32 3.36 -2 2 C-1.34 1.34 -0.68 0.68 0 0 Z " fill="#F2EDEB" transform="translate(434,665)"/>
<path d="M0 0 C1.9451 2.91765 2.45276317 4.62537285 3 8 C1.35 8.33 -0.3 8.66 -2 9 C-1.125 2.25 -1.125 2.25 0 0 Z " fill="#E8DFDC" transform="translate(299,633)"/>
<path d="M0 0 C1.27875 -0.061875 2.5575 -0.12375 3.875 -0.1875 C4.95394531 -0.23970703 4.95394531 -0.23970703 6.0546875 -0.29296875 C6.69664063 -0.19628906 7.33859375 -0.09960938 8 0 C8.66 0.99 9.32 1.98 10 3 C5.70700357 4.26264601 3.12168689 3.62950412 -1 2 C-0.67 1.34 -0.34 0.68 0 0 Z " fill="#F5ECE7" transform="translate(36,596)"/>
<path d="M0 0 C2.375 0.25 2.375 0.25 5 1 C6.25 2.9375 6.25 2.9375 7 5 C7.33 5.66 7.66 6.32 8 7 C7.34 7.66 6.68 8.32 6 9 C4 7.1875 4 7.1875 2 5 C2 4.01 2 3.02 2 2 C1.34 2 0.68 2 0 2 C0 1.34 0 0.68 0 0 Z " fill="#EEE4DF" transform="translate(18,526)"/>
<path d="M0 0 C3 0 3 0 6 2 C3.69 3.65 1.38 5.3 -1 7 C-1.66 6.67 -2.32 6.34 -3 6 C-2.01 4.02 -1.02 2.04 0 0 Z " fill="#E9E0DD" transform="translate(417,563)"/>
<path d="M0 0 C2.91227269 3.28804981 4.49701212 5.59885603 5 10 C4.34 8.68 3.68 7.36 3 6 C1.35 6 -0.3 6 -2 6 C-1.34 4.02 -0.68 2.04 0 0 Z " fill="#E1D4CE" transform="translate(124,553)"/>
<path d="M0 0 C0.66 0 1.32 0 2 0 C2 5.61 2 11.22 2 17 C1.01 17 0.02 17 -1 17 C-0.67 11.39 -0.34 5.78 0 0 Z " fill="#D9C7C3" transform="translate(217,523)"/>
<path d="M0 0 C4.61691161 0.52464905 6.09987886 1.07490914 10 4 C6.7 4 3.4 4 0 4 C0 2.68 0 1.36 0 0 Z " fill="#C6B4B1" transform="translate(3,479)"/>
<path d="M0 0 C1.32 0.66 2.64 1.32 4 2 C3.67 2.99 3.34 3.98 3 5 C2.34 5 1.68 5 1 5 C0.67 5.66 0.34 6.32 0 7 C0 6.34 0 5.68 0 5 C-0.66 5 -1.32 5 -2 5 C-1.125 1.125 -1.125 1.125 0 0 Z " fill="#F6F1EE" transform="translate(390,67)"/>
<path d="M0 0 C1.65 0 3.3 0 5 0 C4.01 1.98 3.02 3.96 2 6 C0.68 5.34 -0.64 4.68 -2 4 C-1.34 2.68 -0.68 1.36 0 0 Z " fill="#F5EFEE" transform="translate(199,11)"/>
<path d="M0 0 C0.33 0.66 0.66 1.32 1 2 C1.99 2.33 2.98 2.66 4 3 C-1.625 7 -1.625 7 -5 7 C-5 6.34 -5 5.68 -5 5 C-4.34 5 -3.68 5 -3 5 C-2.67 4.34 -2.34 3.68 -2 3 C-1.34 2.01 -0.68 1.02 0 0 Z " fill="#EDE7E6" transform="translate(362,628)"/>
<path d="M0 0 C3.125 0.375 3.125 0.375 6 1 C3.37801226 3.15377564 1.35595828 4.40072174 -2 5 C-2 2 -2 2 0 0 Z " fill="#F6EFEC" transform="translate(132,629)"/>
<path d="M0 0 C1.42331668 4.26995005 1.42331668 7.73004995 0 12 C-0.99 11.67 -1.98 11.34 -3 11 C-2.69078116 9.54096742 -2.37751201 8.08279278 -2.0625 6.625 C-1.88847656 5.81289063 -1.71445312 5.00078125 -1.53515625 4.1640625 C-1 2 -1 2 0 0 Z " fill="#E4DAD5" transform="translate(479,533)"/>
<path d="M0 0 C0.33 0 0.66 0 1 0 C1.36625971 4.51720311 1.36625971 4.51720311 -0.375 6.8125 C-2 8 -2 8 -4 8 C-4.33 8.66 -4.66 9.32 -5 10 C-5 7 -5 7 -4 5 C-3.34 5 -2.68 5 -2 5 C-1.34 3.35 -0.68 1.7 0 0 Z " fill="#EEE2DF" transform="translate(365,336)"/>
<path d="M0 0 C2.32472205 2.85306797 3.7508258 5.54074837 5 9 C4.01 9 3.02 9 2 9 C0.66666667 7 -0.66666667 5 -2 3 C-1.34 2.01 -0.68 1.02 0 0 Z " fill="#E9DED8" transform="translate(164,331)"/>
<path d="M0 0 C3.36720387 1.39332574 4.9859524 2.9789286 7 6 C6.01 6.33 5.02 6.66 4 7 C3.67 5.68 3.34 4.36 3 3 C2.01 3.99 1.02 4.98 0 6 C-0.66 5.34 -1.32 4.68 -2 4 C-1.34 2.68 -0.68 1.36 0 0 Z " fill="#ECE4E1" transform="translate(392,260)"/>
<path d="M0 0 C2.475 0.495 2.475 0.495 5 1 C4.01 1.495 4.01 1.495 3 2 C3 2.66 3 3.32 3 4 C3.66 4.33 4.32 4.66 5 5 C3.35 5.66 1.7 6.32 0 7 C0 4.69 0 2.38 0 0 Z " fill="#E7DEDA" transform="translate(119,238)"/>
<path d="M0 0 C0.66 0.33 1.32 0.66 2 1 C0.75 3.5 0.75 3.5 -1 6 C-2.32 6 -3.64 6 -5 6 C-5 5.01 -5 4.02 -5 3 C-3.35 2.67 -1.7 2.34 0 2 C0 1.34 0 0.68 0 0 Z " fill="#EEE8E5" transform="translate(175,116)"/>
<path d="M0 0 C3.36591866 1.44253657 5.51047079 3.33264727 8 6 C4.625 5.75 4.625 5.75 1 5 C-0.4375 2.9375 -0.4375 2.9375 -1 1 C-0.67 0.67 -0.34 0.34 0 0 Z " fill="#D3C7C6" transform="translate(211,589)"/>
<path d="M0 0 C0.66 0 1.32 0 2 0 C2 0.66 2 1.32 2 2 C2.99 2.33 3.98 2.66 5 3 C3.68 4.32 2.36 5.64 1 7 C0.34 6.67 -0.32 6.34 -1 6 C-0.67 4.02 -0.34 2.04 0 0 Z " fill="#F3ECE9" transform="translate(518,588)"/>
<path d="M0 0 C2.4164124 0.48328248 4.65832183 1.21944061 7 2 C6.67 2.66 6.34 3.32 6 4 C4.68 4 3.36 4 2 4 C1.34 4.99 0.68 5.98 0 7 C-0.38133299 5.0085944 -0.71325582 3.00720923 -1 1 C-0.67 0.67 -0.34 0.34 0 0 Z " fill="#D8C8C2" transform="translate(145,550)"/>
<path d="M0 0 C0 1.65 0 3.3 0 5 C-0.66 4.67 -1.32 4.34 -2 4 C-2.66 4.66 -3.32 5.32 -4 6 C-5.64991582 6.70710678 -7.31562256 7.37943989 -9 8 C-9 7.34 -9 6.68 -9 6 C-8.195625 5.731875 -7.39125 5.46375 -6.5625 5.1875 C-5.716875 4.795625 -4.87125 4.40375 -4 4 C-3.67 3.01 -3.34 2.02 -3 1 C-1 0 -1 0 0 0 Z " fill="#E3D7D7" transform="translate(509,498)"/>
<path d="M0 0 C0.99 0 1.98 0 3 0 C3.33 0.99 3.66 1.98 4 3 C2.5625 5.6875 2.5625 5.6875 1 8 C0 6 -1 4 -2 2 C-1.34 2 -0.68 2 0 2 C0 1.34 0 0.68 0 0 Z " fill="#DDD0CE" transform="translate(75,356)"/>
<path d="M0 0 C0.66 0.33 1.32 0.66 2 1 C0.515 2.485 0.515 2.485 -1 4 C-0.67 4.66 -0.34 5.32 0 6 C-1.98 6.99 -1.98 6.99 -4 8 C-4.66 6.68 -5.32 5.36 -6 4 C-5.195625 3.525625 -4.39125 3.05125 -3.5625 2.5625 C-1.15246512 1.23099846 -1.15246512 1.23099846 0 0 Z " fill="#E6D9D8" transform="translate(356,345)"/>
<path d="M0 0 C6.42857143 4.14285714 6.42857143 4.14285714 9 7 C8.01 7.33 7.02 7.66 6 8 C2.8125 5.75 2.8125 5.75 0 3 C0 2.01 0 1.02 0 0 Z " fill="#EADFDC" transform="translate(383,253)"/>
<path d="M0 0 C0.66 0.33 1.32 0.66 2 1 C1.49396008 3.16874252 1.00016187 4.99967627 0 7 C-1.65 6.67 -3.3 6.34 -5 6 C-4.01 5.67 -3.02 5.34 -2 5 C-2.33 4.34 -2.66 3.68 -3 3 C-2.01 2.01 -1.02 1.02 0 0 Z " fill="#EEE6E5" transform="translate(350,100)"/>
<path d="M0 0 C0.33 1.32 0.66 2.64 1 4 C1.99 4 2.98 4 4 4 C4 4.66 4 5.32 4 6 C1.03 5.01 -1.94 4.02 -5 3 C-2 1 -2 1 0 0 Z " fill="#EADBD7" transform="translate(378,667)"/>
<path d="M0 0 C0.99 0.33 1.98 0.66 3 1 C1.68 2.32 0.36 3.64 -1 5 C-1.99 4.67 -2.98 4.34 -4 4 C-3 2 -3 2 0 0 Z " fill="#F9F9F7" transform="translate(393,621)"/>
<path d="M0 0 C1.65 0 3.3 0 5 0 C5.77321882 2.98241547 6.41196203 5.97580475 7 9 C6.01 8.67 5.02 8.34 4 8 C4 6.35 4 4.7 4 3 C3.34 3 2.68 3 2 3 C2 2.34 2 1.68 2 1 C1.34 0.67 0.68 0.34 0 0 Z " fill="#C4B3B0" transform="translate(129,599)"/>
<path d="M0 0 C-1.22934015 3.68802044 -2.93859378 4.72356973 -6 7 C-6.99 6.34 -7.98 5.68 -9 5 C-2.40909091 0 -2.40909091 0 0 0 Z " fill="#EEE5E5" transform="translate(543,576)"/>
<path d="M0 0 C0.625 1.875 0.625 1.875 1 4 C0.34 4.66 -0.32 5.32 -1 6 C-3.625 5.625 -3.625 5.625 -6 5 C-5.34 4.67 -4.68 4.34 -4 4 C-4 3.34 -4 2.68 -4 2 C-2.68 1.34 -1.36 0.68 0 0 Z " fill="#F0E8E5" transform="translate(252,179)"/>
<path d="M0 0 C5.75 1.875 5.75 1.875 8 3 C8 3.66 8 4.32 8 5 C5.36 4.67 2.72 4.34 0 4 C0 2.66666667 0 1.33333333 0 0 Z " fill="#B39697" transform="translate(243,656)"/>
<path d="M0 0 C1.98 0.66 3.96 1.32 6 2 C4.625 4 4.625 4 3 6 C2.34 6 1.68 6 1 6 C1 5.34 1 4.68 1 4 C0.34 4 -0.32 4 -1 4 C-0.67 2.68 -0.34 1.36 0 0 Z " fill="#B79C98" transform="translate(194,649)"/>
<path d="M0 0 C0.33 0.99 0.66 1.98 1 3 C0.67 3.66 0.34 4.32 0 5 C-0.66 5 -1.32 5 -2 5 C-2.33 5.66 -2.66 6.32 -3 7 C-3.33 6.34 -3.66 5.68 -4 5 C-3.67 4.34 -3.34 3.68 -3 3 C-3.66 2.67 -4.32 2.34 -5 2 C-2 0 -2 0 0 0 Z " fill="#F1EAE8" transform="translate(374,631)"/>
<path d="M0 0 C0.99 0 1.98 0 3 0 C2.67 2.64 2.34 5.28 2 8 C0.4375 6.25 0.4375 6.25 -1 4 C-0.6875 1.75 -0.6875 1.75 0 0 Z " fill="#E9E1DD" transform="translate(396,570)"/>
<path d="M0 0 C2.475 0.99 2.475 0.99 5 2 C4.01 2.495 4.01 2.495 3 3 C2.67 3.99 2.34 4.98 2 6 C1.01 5.67 0.02 5.34 -1 5 C-1.33 4.01 -1.66 3.02 -2 2 C-1.34 2 -0.68 2 0 2 C0 1.34 0 0.68 0 0 Z " fill="#ECE2E1" transform="translate(229,323)"/>
<path d="M0 0 C0.33 0 0.66 0 1 0 C2.01911045 3.89114901 2.16782969 5.60596507 0.5625 9.375 C0.046875 10.24125 -0.46875 11.1075 -1 12 C-1.66 11.67 -2.32 11.34 -3 11 C-2.01 7.37 -1.02 3.74 0 0 Z " fill="#DDCCC8" transform="translate(52,164)"/>
<path d="M0 0 C2.475 0.99 2.475 0.99 5 2 C4.67 2.66 4.34 3.32 4 4 C1.0625 4.75 1.0625 4.75 -2 5 C-2.66 4.34 -3.32 3.68 -4 3 C-2.68 2.67 -1.36 2.34 0 2 C0 1.34 0 0.68 0 0 Z " fill="#F1E8E5" transform="translate(208,164)"/>
<path d="M0 0 C4.75 0.75 4.75 0.75 7 3 C5.02 3.66 3.04 4.32 1 5 C0.67 3.35 0.34 1.7 0 0 Z " fill="#F2EDEB" transform="translate(352,680)"/>
<path d="M0 0 C0.99 0.33 1.98 0.66 3 1 C2.67 2.32 2.34 3.64 2 5 C0.68 4.67 -0.64 4.34 -2 4 C-1.34 2.68 -0.68 1.36 0 0 Z " fill="#F5F0EE" transform="translate(60,630)"/>
<path d="M0 0 C0.58265625 0.21527344 1.1653125 0.43054688 1.765625 0.65234375 C0.50322788 1.5189299 -0.76965001 2.37026434 -2.046875 3.21484375 C-3.10841797 3.92833984 -3.10841797 3.92833984 -4.19140625 4.65625 C-6.234375 5.65234375 -6.234375 5.65234375 -9.234375 4.65234375 C-8.16330383 3.78285058 -7.07691556 2.9322017 -5.984375 2.08984375 C-5.38109375 1.61417969 -4.7778125 1.13851562 -4.15625 0.6484375 C-2.234375 -0.34765625 -2.234375 -0.34765625 0 0 Z " fill="#AE999A" transform="translate(59.234375,622.34765625)"/>
<path d="M0 0 C0.99 0 1.98 0 3 0 C2.34 1.32 1.68 2.64 1 4 C0.34 4 -0.32 4 -1 4 C-1.66 5.32 -2.32 6.64 -3 8 C-3.66 7.67 -4.32 7.34 -5 7 C-4.24172908 5.82512964 -3.46792245 4.66027408 -2.6875 3.5 C-2.25824219 2.8503125 -1.82898438 2.200625 -1.38671875 1.53125 C-0.70029297 0.77328125 -0.70029297 0.77328125 0 0 Z " fill="#ECE1DE" transform="translate(98,77)"/>
<path d="M0 0 C2.475 0.99 2.475 0.99 5 2 C4.67 2.99 4.34 3.98 4 5 C1.03 4.505 1.03 4.505 -2 4 C-1.34 2.68 -0.68 1.36 0 0 Z " fill="#F8F1ED" transform="translate(341,699)"/>
<path d="M0 0 C0.99 0.66 1.98 1.32 3 2 C3 2.66 3 3.32 3 4 C2.360625 4.12375 1.72125 4.2475 1.0625 4.375 C0.0415625 4.684375 0.0415625 4.684375 -1 5 C-1.33 5.66 -1.66 6.32 -2 7 C-1.125 1.125 -1.125 1.125 0 0 Z " fill="#EADDDB" transform="translate(228,687)"/>
<path d="M0 0 C1.125 1.75 1.125 1.75 2 4 C1.125 6.25 1.125 6.25 0 8 C-0.66 8 -1.32 8 -2 8 C-1.125 2.25 -1.125 2.25 0 0 Z " fill="#E1D6D4" transform="translate(303,622)"/>
<path d="M0 0 C1.32 1.32 2.64 2.64 4 4 C3.34 4.66 2.68 5.32 2 6 C0.35 4.35 -1.3 2.7 -3 1 C-2.01 0.67 -1.02 0.34 0 0 Z " fill="#F4EAE7" transform="translate(203,524)"/>
<path d="M0 0 C1 3 1 3 0 6 C-0.66 6 -1.32 6 -2 6 C-2.33 6.66 -2.66 7.32 -3 8 C-3.66 8 -4.32 8 -5 8 C-4 6 -3 4 -2 2 C-1.34 2 -0.68 2 0 2 C0 1.34 0 0.68 0 0 Z " fill="#E7DCDA" transform="translate(492,513)"/>
<path d="M0 0 C0.33 0.66 0.66 1.32 1 2 C1.66 2 2.32 2 3 2 C2.67 4.31 2.34 6.62 2 9 C0.4375 7.875 0.4375 7.875 -1 6 C-0.6875 2.8125 -0.6875 2.8125 0 0 Z " fill="#EEE4E1" transform="translate(538,492)"/>
<path d="M0 0 C3.465 1.98 3.465 1.98 7 4 C6.01 5.485 6.01 5.485 5 7 C4.34 7 3.68 7 3 7 C0 2.61538462 0 2.61538462 0 0 Z " fill="#F4EDE8" transform="translate(311,202)"/>
<path d="M0 0 C1.98 0.99 3.96 1.98 6 3 C5.01 3.66 4.02 4.32 3 5 C1.68 4.34 0.36 3.68 -1 3 C-0.67 2.01 -0.34 1.02 0 0 Z " fill="#F4EDE8" transform="translate(279,181)"/>
<path d="M0 0 C0 3.20395416 -0.74335022 5.09399739 -2 8 C-3.32 7.34 -4.64 6.68 -6 6 C-4.02 4.02 -2.04 2.04 0 0 Z " fill="#F8F0E9" transform="translate(162,162)"/>
<path d="M0 0 C0.78375 0.04125 1.5675 0.0825 2.375 0.125 C2.375 1.115 2.375 2.105 2.375 3.125 C-1.625 3.125 -1.625 3.125 -4.625 2.125 C-2.625 0.125 -2.625 0.125 0 0 Z " fill="#F3EFEC" transform="translate(93.625,86.875)"/>
<path d="M0 0 C0.99 1.32 1.98 2.64 3 4 C0 6 0 6 -3 6 C-2.42655063 3.13275314 -2.1385485 2.1385485 0 0 Z " fill="#B69E9E" transform="translate(361,633)"/>
<path d="M0 0 C0.99 0.33 1.98 0.66 3 1 C-0.465 3.97 -0.465 3.97 -4 7 C-3.6875 4.625 -3.6875 4.625 -3 2 C-2.01 1.34 -1.02 0.68 0 0 Z " fill="#E6D3D0" transform="translate(435,580)"/>
<path d="M0 0 C0.66 0.33 1.32 0.66 2 1 C-0.83430453 4.2542015 -2.68607774 5.5206753 -7 6 C-4.74259377 3.66475218 -2.7194239 1.81294927 0 0 Z " fill="#DDD2D0" transform="translate(393,554)"/>
<path d="M0 0 C-1.1875 1.5 -1.1875 1.5 -3 3 C-5.6875 3.1875 -5.6875 3.1875 -8 3 C-8 2.34 -8 1.68 -8 1 C-3.375 -1.125 -3.375 -1.125 0 0 Z " fill="#F3EEEA" transform="translate(196,357)"/>
<path d="M0 0 C0.66 0.66 1.32 1.32 2 2 C1.01 2.33 0.02 2.66 -1 3 C-1.33 2.01 -1.66 1.02 -2 0 C-2.61875 0.20625 -3.2375 0.4125 -3.875 0.625 C-4.57625 0.74875 -5.2775 0.8725 -6 1 C-6.66 0.34 -7.32 -0.32 -8 -1 C-4.34765818 -2.21744727 -3.37046678 -1.64202228 0 0 Z " fill="#ECE0DA" transform="translate(185,351)"/>
<path d="M0 0 C0.66 0.33 1.32 0.66 2 1 C1.67 3.31 1.34 5.62 1 8 C0.67 7.34 0.34 6.68 0 6 C-0.66 5.67 -1.32 5.34 -2 5 C-1.34 5 -0.68 5 0 5 C-0.2784375 4.0409375 -0.2784375 4.0409375 -0.5625 3.0625 C-0.7790625 2.0415625 -0.7790625 2.0415625 -1 1 C-0.67 0.67 -0.34 0.34 0 0 Z " fill="#F9F7F4" transform="translate(283,332)"/>
<path d="M0 0 C0.66 0.99 1.32 1.98 2 3 C0.35 4.32 -1.3 5.64 -3 7 C-3.33 6.34 -3.66 5.68 -4 5 C-3.67 4.34 -3.34 3.68 -3 3 C-2.34 3 -1.68 3 -1 3 C-0.67 2.01 -0.34 1.02 0 0 Z " fill="#EBE1DC" transform="translate(147,178)"/>
<path d="M0 0 C0.66 1.32 1.32 2.64 2 4 C1.01 4.495 1.01 4.495 0 5 C-0.33 5.66 -0.66 6.32 -1 7 C-1.99 6.01 -2.98 5.02 -4 4 C-2.68 2.68 -1.36 1.36 0 0 Z " fill="#F0E8E3" transform="translate(155,169)"/>
<path d="M0 0 C0.66 0.33 1.32 0.66 2 1 C2.125 3.875 2.125 3.875 2 7 C1.34 7.66 0.68 8.32 0 9 C-1.125 3.375 -1.125 3.375 0 0 Z " fill="#E6DAD7" transform="translate(58,144)"/>
<path d="M0 0 C0.66 0 1.32 0 2 0 C1.67 0.66 1.34 1.32 1 2 C0.67 1.34 0.34 0.68 0 0 Z " fill="#B8ACA4" transform="translate(347,579)"/>
<path d="" fill="#B6A79F" transform="translate(0,0)"/>
<path d="" fill="#CDBCB5" transform="translate(0,0)"/>
<path d="" fill="#BEACA0" transform="translate(0,0)"/>
</svg>
