<?xml version="1.0" encoding="UTF-8"?>
<!DOCTYPE svg PUBLIC "-//W3C//DTD SVG 1.1//EN" "http://www.w3.org/Graphics/SVG/1.1/DTD/svg11.dtd">
<svg xmlns="http://www.w3.org/2000/svg" version="1.1" width="398px" height="385px" style="shape-rendering:geometricPrecision; text-rendering:geometricPrecision; image-rendering:optimizeQuality; fill-rule:evenodd; clip-rule:evenodd" xmlns:xlink="http://www.w3.org/1999/xlink">
<g><path style="opacity:1" fill="#73c17e" d="M 101.5,37.5 C 148.002,36.169 194.668,36.169 241.5,37.5C 233.313,42.7596 224.979,47.7596 216.5,52.5C 217.942,51.1805 218.608,49.5138 218.5,47.5C 220.199,47.6602 221.866,47.4935 223.5,47C 226.387,43.6105 229.72,40.7772 233.5,38.5C 189.67,37.5013 145.67,37.168 101.5,37.5 Z"/></g>
<g><path style="opacity:1" fill="#80f19b" d="M 101.5,37.5 C 145.67,37.168 189.67,37.5013 233.5,38.5C 189.162,38.1667 144.828,38.5001 100.5,39.5C 97.2152,40.3236 93.8818,40.8236 90.5,41C 89.1416,41.9344 87.8083,42.7677 86.5,43.5C 79.477,44.676 73.1436,47.5093 67.5,52C 65.5273,52.4955 63.5273,52.6621 61.5,52.5C 73.2236,43.5871 86.5569,38.5871 101.5,37.5 Z"/></g>
<g><path style="opacity:1" fill="#7fe497" d="M 389.5,37.5 C 389.5,54.5 389.5,71.5 389.5,88.5C 388.5,88.5 387.5,88.5 386.5,88.5C 387.803,80.3985 388.47,72.0652 388.5,63.5C 388.493,55.2576 388.159,47.091 387.5,39C 357.833,38.3333 328.167,38.3333 298.5,39C 288.107,42.1936 277.441,44.027 266.5,44.5C 277.385,40.5537 288.718,38.0537 300.5,37C 330.336,36.1695 360.003,36.3362 389.5,37.5 Z"/></g>
<g><path style="opacity:1" fill="#60ef8d" d="M 233.5,38.5 C 229.72,40.7772 226.387,43.6105 223.5,47C 221.866,47.4935 220.199,47.6602 218.5,47.5C 218.608,49.5138 217.942,51.1805 216.5,52.5C 209.192,58.8042 201.859,65.1375 194.5,71.5C 194.5,69.5 194.5,67.5 194.5,65.5C 196.179,65.7148 197.179,65.0481 197.5,63.5C 199.296,62.2073 200.963,60.7073 202.5,59C 201.542,57.8525 201.875,56.8525 203.5,56C 206.308,55.9814 208.641,54.9814 210.5,53C 208.109,52.3086 208.109,51.3086 210.5,50C 209.376,49.7508 208.376,49.2508 207.5,48.5C 208,48.1667 208.5,47.8333 209,47.5C 211.005,48.7827 213.172,49.7827 215.5,50.5C 216.92,48.7798 218.253,46.9465 219.5,45C 222.377,44.0438 225.044,42.7105 227.5,41C 226.285,38.9045 225.451,39.0712 225,41.5C 184.037,40.367 142.87,40.2003 101.5,41C 96.3817,40.98 91.3817,41.8133 86.5,43.5C 87.8083,42.7677 89.1416,41.9344 90.5,41C 93.8818,40.8236 97.2152,40.3236 100.5,39.5C 144.828,38.5001 189.162,38.1667 233.5,38.5 Z"/></g>
<g><path style="opacity:1" fill="#72e08b" d="M 266.5,44.5 C 259.768,50.5232 251.768,53.8565 242.5,54.5C 249.984,50.0963 257.984,46.763 266.5,44.5 Z"/></g>
<g><path style="opacity:1" fill="#4ef983" d="M 197.5,63.5 C 197.179,65.0481 196.179,65.7148 194.5,65.5C 194.5,67.5 194.5,69.5 194.5,71.5C 189.585,72.1153 186.585,74.782 185.5,79.5C 183.821,79.8923 182.154,80.3923 180.5,81C 181.574,83.9696 180.407,85.8029 177,86.5C 176.316,85.2161 176.483,84.0495 177.5,83C 171.592,82.8112 171.258,81.8112 176.5,80C 175.552,79.5172 174.552,79.3505 173.5,79.5C 173.316,74.4664 171.483,70.1331 168,66.5C 166.147,70.236 164.981,74.236 164.5,78.5C 163.575,79.6405 162.741,79.6405 162,78.5C 150.576,79.3222 139.076,79.8222 127.5,80C 138.008,81.3103 148.675,81.977 159.5,82C 144.806,82.5647 130.139,83.398 115.5,84.5C 113.369,83.0369 111.035,82.0369 108.5,81.5C 107.5,81.8333 106.5,82.1667 105.5,82.5C 107.902,83.5754 110.236,84.7421 112.5,86C 109.789,87.8048 107.122,87.8048 104.5,86C 104.833,85.6667 105.167,85.3333 105.5,85C 104.175,85.1484 103.008,84.9817 102,84.5C 99.4382,86.9133 96.4382,88.58 93,89.5C 89.1335,86.8918 88.6335,83.7251 91.5,80C 90.8914,77.1968 89.2247,76.1968 86.5,77C 87.7112,77.8928 87.7112,78.7261 86.5,79.5C 82.9595,77.5688 79.6262,75.4021 76.5,73C 74.9751,71.9914 73.3084,71.4914 71.5,71.5C 71.6495,70.448 71.4828,69.448 71,68.5C 64.5891,64.3403 65.4224,62.3403 73.5,62.5C 70.0035,61.277 66.5035,61.277 63,62.5C 61.9412,62.3699 61.1079,61.8699 60.5,61C 62.0456,58.7432 63.7123,56.5765 65.5,54.5C 66.086,54.7093 66.586,55.0426 67,55.5C 71.9738,50.0976 78.1405,47.5976 85.5,48C 84.6314,50.5785 82.9648,52.4118 80.5,53.5C 79.5224,53.0233 78.6891,52.3567 78,51.5C 77.1923,53.5787 77.359,55.5787 78.5,57.5C 80.3736,56.065 82.3736,54.8984 84.5,54C 86.8255,53.6547 88.4921,54.6547 89.5,57C 87.9872,58.8792 87.3205,61.0459 87.5,63.5C 89.5,63.5 91.5,63.5 93.5,63.5C 93.1866,66.2469 93.52,68.9135 94.5,71.5C 95.4287,70.3112 95.762,68.9778 95.5,67.5C 100.621,67.3131 105.621,67.3131 110.5,67.5C 111.243,66.0921 112.077,64.7588 113,63.5C 119.392,64.049 126.558,64.049 134.5,63.5C 134.833,55.5 135.167,55.5 135.5,63.5C 139.593,63.4778 143.593,62.8112 147.5,61.5C 149.384,61.7163 151.051,62.383 152.5,63.5C 153.696,63.1543 153.696,62.6543 152.5,62C 153.609,61.3623 154.775,60.8623 156,60.5C 158.2,61.619 160.033,62.619 161.5,63.5C 163.876,62.7744 165.876,61.4411 167.5,59.5C 162.613,56.9421 159.613,52.9421 158.5,47.5C 154.231,47.9015 149.898,47.9015 145.5,47.5C 144.353,47.8178 143.519,48.4844 143,49.5C 137.792,47.7407 132.292,46.9074 126.5,47C 130.339,46.541 134.172,46.041 138,45.5C 156.806,45.7107 174.472,45.7107 191,45.5C 193.405,46.2744 195.905,46.7744 198.5,47C 195.655,47.5382 192.988,48.5382 190.5,50C 189.833,52.3333 189.167,54.6667 188.5,57C 190.604,57.7908 191.937,59.2908 192.5,61.5C 195.54,58.625 197.206,59.2917 197.5,63.5 Z"/></g>
<g><path style="opacity:1" fill="#50f986" d="M 386.5,88.5 C 355.498,88.3334 324.498,88.5 293.5,89C 291.5,89.3333 289.5,89.6667 287.5,90C 281.157,93.488 274.49,96.3213 267.5,98.5C 265.825,98.8684 264.825,99.8684 264.5,101.5C 260.374,102.734 256.374,103.567 252.5,104C 248.908,107.341 245.908,111.174 243.5,115.5C 238.116,120.722 232.616,125.722 227,130.5C 225.284,129.448 224.284,130.114 224,132.5C 223.104,129.208 224.271,126.875 227.5,125.5C 225.914,123.827 225.247,121.827 225.5,119.5C 226.552,119.649 227.552,119.483 228.5,119C 227.019,118.02 225.685,116.853 224.5,115.5C 223.158,117.005 221.492,117.672 219.5,117.5C 219.833,114.5 218.5,113.167 215.5,113.5C 215.657,114.873 215.49,116.207 215,117.5C 212.999,112.811 210.666,112.478 208,116.5C 207.869,113.629 206.703,111.295 204.5,109.5C 205,109.167 205.5,108.833 206,108.5C 209.074,110.792 212.241,110.792 215.5,108.5C 212.738,106.757 209.905,106.423 207,107.5C 205.5,105.667 204,103.833 202.5,102C 201.175,102.148 200.008,101.982 199,101.5C 197.632,103.815 196.799,103.815 196.5,101.5C 197.304,99.864 198.304,98.364 199.5,97C 199.167,96.6667 198.833,96.3333 198.5,96C 200.744,93.6965 202.41,94.0299 203.5,97C 207.16,98.1135 207.993,97.2802 206,94.5C 205.667,94.8333 205.333,95.1667 205,95.5C 204.333,94.1667 204.333,92.8333 205,91.5C 205.414,91.9574 205.914,92.2907 206.5,92.5C 205.99,87.9692 207.99,84.8026 212.5,83C 214.141,81.871 215.141,80.371 215.5,78.5C 215.414,77.5041 215.748,76.6708 216.5,76C 219.5,75.6667 221.167,74 221.5,71C 225.99,70.7369 229.323,68.7369 231.5,65C 233.5,64 235.5,63 237.5,62C 236.978,61.4387 236.645,60.772 236.5,60C 238.375,57.9549 240.375,56.1215 242.5,54.5C 251.768,53.8565 259.768,50.5232 266.5,44.5C 277.441,44.027 288.107,42.1936 298.5,39C 328.167,38.3333 357.833,38.3333 387.5,39C 388.159,47.091 388.493,55.2576 388.5,63.5C 388.47,72.0652 387.803,80.3985 386.5,88.5 Z"/></g>
<g><path style="opacity:1" fill="#52f888" d="M 197.5,63.5 C 197.206,59.2917 195.54,58.625 192.5,61.5C 191.937,59.2908 190.604,57.7908 188.5,57C 189.167,54.6667 189.833,52.3333 190.5,50C 192.988,48.5382 195.655,47.5382 198.5,47C 195.905,46.7744 193.405,46.2744 191,45.5C 174.472,45.7107 156.806,45.7107 138,45.5C 134.172,46.041 130.339,46.541 126.5,47C 132.292,46.9074 137.792,47.7407 143,49.5C 143.519,48.4844 144.353,47.8178 145.5,47.5C 149.898,47.9015 154.231,47.9015 158.5,47.5C 159.613,52.9421 162.613,56.9421 167.5,59.5C 165.876,61.4411 163.876,62.7744 161.5,63.5C 160.033,62.619 158.2,61.619 156,60.5C 154.775,60.8623 153.609,61.3623 152.5,62C 153.696,62.6543 153.696,63.1543 152.5,63.5C 151.051,62.383 149.384,61.7163 147.5,61.5C 143.593,62.8112 139.593,63.4778 135.5,63.5C 135.167,55.5 134.833,55.5 134.5,63.5C 126.558,64.049 119.392,64.049 113,63.5C 112.077,64.7588 111.243,66.0921 110.5,67.5C 105.621,67.3131 100.621,67.3131 95.5,67.5C 95.762,68.9778 95.4287,70.3112 94.5,71.5C 93.52,68.9135 93.1866,66.2469 93.5,63.5C 91.5,63.5 89.5,63.5 87.5,63.5C 87.3205,61.0459 87.9872,58.8792 89.5,57C 88.4921,54.6547 86.8255,53.6547 84.5,54C 82.3736,54.8984 80.3736,56.065 78.5,57.5C 77.359,55.5787 77.1923,53.5787 78,51.5C 78.6891,52.3567 79.5224,53.0233 80.5,53.5C 82.9648,52.4118 84.6314,50.5785 85.5,48C 78.1405,47.5976 71.9738,50.0976 67,55.5C 66.586,55.0426 66.086,54.7093 65.5,54.5C 63.7123,56.5765 62.0456,58.7432 60.5,61C 61.1079,61.8699 61.9412,62.3699 63,62.5C 66.5035,61.277 70.0035,61.277 73.5,62.5C 65.4224,62.3403 64.5891,64.3403 71,68.5C 71.4828,69.448 71.6495,70.448 71.5,71.5C 73.3084,71.4914 74.9751,71.9914 76.5,73C 79.6262,75.4021 82.9595,77.5688 86.5,79.5C 87.7112,78.7261 87.7112,77.8928 86.5,77C 89.2247,76.1968 90.8914,77.1968 91.5,80C 88.6335,83.7251 89.1335,86.8918 93,89.5C 96.4382,88.58 99.4382,86.9133 102,84.5C 103.008,84.9817 104.175,85.1484 105.5,85C 105.167,85.3333 104.833,85.6667 104.5,86C 107.122,87.8048 109.789,87.8048 112.5,86C 110.236,84.7421 107.902,83.5754 105.5,82.5C 106.5,82.1667 107.5,81.8333 108.5,81.5C 111.035,82.0369 113.369,83.0369 115.5,84.5C 130.139,83.398 144.806,82.5647 159.5,82C 148.675,81.977 138.008,81.3103 127.5,80C 139.076,79.8222 150.576,79.3222 162,78.5C 162.741,79.6405 163.575,79.6405 164.5,78.5C 164.981,74.236 166.147,70.236 168,66.5C 171.483,70.1331 173.316,74.4664 173.5,79.5C 174.552,79.3505 175.552,79.5172 176.5,80C 171.258,81.8112 171.592,82.8112 177.5,83C 176.483,84.0495 176.316,85.2161 177,86.5C 180.407,85.8029 181.574,83.9696 180.5,81C 182.154,80.3923 183.821,79.8923 185.5,79.5C 184.164,84.6204 180.831,87.4538 175.5,88C 150.833,88.3333 126.167,88.6667 101.5,89C 98.3117,90.3158 94.9783,90.8158 91.5,90.5C 88.4833,93.8663 86.4833,97.8663 85.5,102.5C 84.325,102.281 83.325,102.614 82.5,103.5C 80.9802,105.662 79.9802,107.995 79.5,110.5C 78.0689,110.119 77.2355,109.119 77,107.5C 76.6566,111.059 75.8233,114.559 74.5,118C 74.8333,118.333 75.1667,118.667 75.5,119C 74.3333,119.5 73.5,120.333 73,121.5C 72.3333,128.833 72.3333,136.167 73,143.5C 74.2989,144.09 75.1322,145.09 75.5,146.5C 72.2735,158.711 72.9402,170.878 77.5,183C 82.4482,184.05 87.4482,184.55 92.5,184.5C 89.2867,185.944 88.9534,187.777 91.5,190C 90.8921,190.87 90.0588,191.37 89,191.5C 86.8487,190.188 85.3487,188.355 84.5,186C 83.3914,185.362 82.2247,184.862 81,184.5C 78.5061,186.167 77.0061,188.5 76.5,191.5C 75.5857,189.336 74.419,187.336 73,185.5C 72.6667,187.5 72.3333,189.5 72,191.5C 70.8197,190.316 69.3197,189.649 67.5,189.5C 65.09,190.19 62.7567,190.69 60.5,191C 61.5,190 62.5,189 63.5,188C 73.8934,187.198 73.8934,185.698 63.5,183.5C 64.6869,183.446 66.0202,183.113 67.5,182.5C 66.3743,180.05 67.041,178.05 69.5,176.5C 67.6772,176.561 66.3439,175.394 65.5,173C 66.5067,171.48 67.1734,169.813 67.5,168C 67.7457,165.328 67.079,163.828 65.5,163.5C 65.8515,162.214 66.5182,161.381 67.5,161C 65.5045,156.019 65.0045,150.852 66,145.5C 66.8333,144.5 67.6667,143.5 68.5,142.5C 69.6086,143.59 70.6086,143.59 71.5,142.5C 70.9747,141.808 70.3081,141.308 69.5,141C 72.1667,139.333 72.1667,137.667 69.5,136C 70.5784,135.326 71.2451,134.326 71.5,133C 70.6216,131.2 69.955,129.367 69.5,127.5C 67.5,127.5 65.5,127.5 63.5,127.5C 63.5,126.167 63.5,124.833 63.5,123.5C 66.0046,123.98 68.3379,124.98 70.5,126.5C 71.4287,125.311 71.762,123.978 71.5,122.5C 68.8333,122.167 66.1667,121.833 63.5,121.5C 63.5,117.167 63.5,112.833 63.5,108.5C 60.5525,108.223 57.7191,108.556 55,109.5C 54.5783,106.764 54.5783,104.098 55,101.5C 51.7939,98.9866 48.4606,96.6532 45,94.5C 44.04,92.0197 43.2066,89.5197 42.5,87C 42.8333,86.6667 43.1667,86.3333 43.5,86C 42.451,85.5078 41.451,85.6744 40.5,86.5C 39.8076,85.9747 39.3076,85.3081 39,84.5C 36.9837,85.8387 35.817,87.6721 35.5,90C 36.1227,93.4813 36.6227,96.9813 37,100.5C 37.9246,101.047 38.7579,101.713 39.5,102.5C 37.2573,103.474 34.924,103.808 32.5,103.5C 32.33,104.822 32.6634,105.989 33.5,107C 32.3677,111.866 31.0344,116.699 29.5,121.5C 30.6423,127.052 30.309,132.552 28.5,138C 28.7634,140.621 29.43,143.121 30.5,145.5C 30.2537,196.245 29.9204,246.079 29.5,295C 30.3104,301.775 30.9771,308.609 31.5,315.5C 30.8216,324.902 30.1549,334.402 29.5,344C 31.0997,346.64 30.7664,348.807 28.5,350.5C 28.011,270.5 27.8443,190.5 28,110.5C 29.65,106.55 30.9834,102.55 32,98.5C 32.498,95.5184 32.6646,92.5184 32.5,89.5C 36.5976,84.1345 40.2643,78.4678 43.5,72.5C 49.8849,66.1185 55.8849,59.4518 61.5,52.5C 63.5273,52.6621 65.5273,52.4955 67.5,52C 73.1436,47.5093 79.477,44.676 86.5,43.5C 91.3817,41.8133 96.3817,40.98 101.5,41C 142.87,40.2003 184.037,40.367 225,41.5C 225.451,39.0712 226.285,38.9045 227.5,41C 225.044,42.7105 222.377,44.0438 219.5,45C 218.253,46.9465 216.92,48.7798 215.5,50.5C 213.172,49.7827 211.005,48.7827 209,47.5C 208.5,47.8333 208,48.1667 207.5,48.5C 208.376,49.2508 209.376,49.7508 210.5,50C 208.109,51.3086 208.109,52.3086 210.5,53C 208.641,54.9814 206.308,55.9814 203.5,56C 201.875,56.8525 201.542,57.8525 202.5,59C 200.963,60.7073 199.296,62.2073 197.5,63.5 Z"/></g>
<g><path style="opacity:1" fill="#79dd90" d="M 61.5,52.5 C 55.8849,59.4518 49.8849,66.1185 43.5,72.5C 40.2643,78.4678 36.5976,84.1345 32.5,89.5C 38.0864,73.9198 47.7531,61.5865 61.5,52.5 Z"/></g>
<g><path style="opacity:1" fill="#75e692" d="M 242.5,54.5 C 240.375,56.1215 238.375,57.9549 236.5,60C 236.645,60.772 236.978,61.4387 237.5,62C 235.5,63 233.5,64 231.5,65C 229.323,68.7369 225.99,70.7369 221.5,71C 221.167,74 219.5,75.6667 216.5,76C 215.748,76.6708 215.414,77.5041 215.5,78.5C 211.633,80.0281 208.299,82.3614 205.5,85.5C 198.25,93.568 192.584,102.568 188.5,112.5C 185.902,113.76 183.569,115.427 181.5,117.5C 187.782,103.542 196.448,91.2084 207.5,80.5C 217.621,69.6211 229.288,60.9544 242.5,54.5 Z"/></g>
<g><path style="opacity:1" fill="#71d784" d="M 194.5,71.5 C 189.388,77.5444 184.388,83.7111 179.5,90C 155.826,90.4228 132.159,90.4228 108.5,90C 99.0159,91.0711 91.3492,95.2377 85.5,102.5C 86.4833,97.8663 88.4833,93.8663 91.5,90.5C 94.9783,90.8158 98.3117,90.3158 101.5,89C 126.167,88.6667 150.833,88.3333 175.5,88C 180.831,87.4538 184.164,84.6204 185.5,79.5C 186.585,74.782 189.585,72.1153 194.5,71.5 Z"/></g>
<g><path style="opacity:1" fill="#71d588" d="M 386.5,88.5 C 375.5,89.1667 364.5,89.8333 353.5,90.5C 341.152,90.6773 328.819,90.344 316.5,89.5C 295.427,89.5273 276.094,95.1939 258.5,106.5C 260.059,104.376 262.059,102.709 264.5,101.5C 264.825,99.8684 265.825,98.8684 267.5,98.5C 274.49,96.3213 281.157,93.488 287.5,90C 289.5,89.6667 291.5,89.3333 293.5,89C 324.498,88.5 355.498,88.3334 386.5,88.5 Z"/></g>
<g><path style="opacity:1" fill="#5ca76f" d="M 389.5,37.5 C 390.827,54.6713 390.827,72.0046 389.5,89.5C 377.551,90.4795 365.551,90.8128 353.5,90.5C 364.5,89.8333 375.5,89.1667 386.5,88.5C 387.5,88.5 388.5,88.5 389.5,88.5C 389.5,71.5 389.5,54.5 389.5,37.5 Z"/></g>
<g><path style="opacity:1" fill="#4df984" d="M 92.5,184.5 C 93.5,184.5 94.5,184.5 95.5,184.5C 100.954,185.968 106.288,186.802 111.5,187C 108.128,187.134 104.961,187.968 102,189.5C 101.894,188.206 100.894,187.539 99,187.5C 96.4345,187.843 95.6012,189.01 96.5,191C 101.257,190.899 106.257,191.066 111.5,191.5C 111.5,196.833 111.5,202.167 111.5,207.5C 110.698,206.048 110.198,204.382 110,202.5C 108.731,203.905 108.231,205.571 108.5,207.5C 104.769,207.815 101.435,206.815 98.5,204.5C 99.1667,203.833 99.8333,203.167 100.5,202.5C 96.8387,201.642 95.0053,203.308 95,207.5C 94.5034,205.19 94.3367,202.857 94.5,200.5C 97.9067,200.875 98.4067,199.875 96,197.5C 95.2904,198.973 94.1238,199.64 92.5,199.5C 91.5737,209.101 90.7404,209.434 90,200.5C 88.2791,200.469 86.4458,199.802 84.5,198.5C 85.4033,196.38 86.7367,196.046 88.5,197.5C 89.8333,196.833 89.8333,196.167 88.5,195.5C 87.7065,195.069 86.8732,194.735 86,194.5C 84.1208,196.013 81.9541,196.679 79.5,196.5C 79.6602,198.199 79.4935,199.866 79,201.5C 78.587,198.768 77.9203,196.101 77,193.5C 76.187,195.436 75.687,197.436 75.5,199.5C 73.8333,199.5 72.1667,199.5 70.5,199.5C 70.4401,203.327 71.6068,203.994 74,201.5C 74.6667,203.167 74.6667,204.833 74,206.5C 71.841,204.044 71.0077,204.71 71.5,208.5C 68.9896,209.783 66.3229,210.783 63.5,211.5C 63.5,212.5 63.5,213.5 63.5,214.5C 60.8609,214.429 58.6942,213.429 57,211.5C 53.8163,212.724 53.983,213.891 57.5,215C 56.6919,215.308 56.0253,215.808 55.5,216.5C 51.9502,217.016 48.6169,218.016 45.5,219.5C 49.7546,220.982 54.0879,222.315 58.5,223.5C 58.5,224.5 58.5,225.5 58.5,226.5C 55.8301,225.178 52.9968,224.178 50,223.5C 49.1667,223.667 48.3333,223.833 47.5,224C 48.6226,225.044 49.9559,225.71 51.5,226C 51.1667,226.333 50.8333,226.667 50.5,227C 48.5116,227.18 46.5116,227.014 44.5,226.5C 44.5,225.5 44.5,224.5 44.5,223.5C 43.0695,223.579 41.7362,223.246 40.5,222.5C 39.5344,224.396 39.2011,226.396 39.5,228.5C 40.5,228.5 41.5,228.5 42.5,228.5C 42.5,229.5 42.5,230.5 42.5,231.5C 45.2399,231.737 46.9066,233.237 47.5,236C 46.5819,238.086 45.9153,240.253 45.5,242.5C 43.0799,242.708 40.7466,242.374 38.5,241.5C 37.2655,243.398 37.5989,245.065 39.5,246.5C 38.689,247.216 38.0223,248.05 37.5,249C 38.3169,250.49 39.1502,251.99 40,253.5C 41.8241,252.251 41.6574,251.085 39.5,250C 40.9552,247.984 42.9552,247.151 45.5,247.5C 45.4232,250.918 43.7565,253.251 40.5,254.5C 39.6725,258.796 39.1725,263.129 39,267.5C 38.5,268 38,268.5 37.5,269C 40.7462,268.683 44.0795,268.517 47.5,268.5C 47.5,269.5 47.5,270.5 47.5,271.5C 49.5116,272.014 51.5116,272.18 53.5,272C 52.6919,271.692 52.0253,271.192 51.5,270.5C 52.2458,269.264 52.5792,267.93 52.5,266.5C 53.5,266.5 54.5,266.5 55.5,266.5C 55.3379,268.527 55.5045,270.527 56,272.5C 57.4936,271.253 58.9936,271.253 60.5,272.5C 60.0814,273.672 59.4147,274.672 58.5,275.5C 56.4553,277.047 54.2887,278.381 52,279.5C 51.5,279.167 51,278.833 50.5,278.5C 51.8532,277.476 52.5198,276.143 52.5,274.5C 50.3393,274.826 48.5059,275.826 47,277.5C 45.3974,273.915 43.2307,273.582 40.5,276.5C 39.1667,275.167 39.1667,273.833 40.5,272.5C 41.6086,273.59 42.6086,273.59 43.5,272.5C 42.0095,271.756 40.5095,271.09 39,270.5C 38.1251,271.873 37.6251,273.373 37.5,275C 38.9371,278.106 41.1037,280.606 44,282.5C 44.4643,287.35 46.9643,288.684 51.5,286.5C 52.2458,285.264 52.5792,283.93 52.5,282.5C 53.5,282.5 54.5,282.5 55.5,282.5C 55.5,281.5 55.5,280.5 55.5,279.5C 57.5273,279.338 59.5273,279.505 61.5,280C 58.8421,282.999 56.1754,285.999 53.5,289C 54.7324,292.39 55.5658,292.223 56,288.5C 57.4404,289.93 57.7737,291.597 57,293.5C 51.5739,296.456 45.7406,298.122 39.5,298.5C 38.955,295.056 36.955,293.889 33.5,295C 36.8457,296.85 38.8457,299.683 39.5,303.5C 42.1667,303.5 44.8333,303.5 47.5,303.5C 47.5,302.167 47.5,300.833 47.5,299.5C 50.3198,299.248 52.9865,299.748 55.5,301C 47.7044,302.762 47.7044,303.595 55.5,303.5C 55.5,304.5 55.5,305.5 55.5,306.5C 52.8333,306.5 50.1667,306.5 47.5,306.5C 47.5,307.5 47.5,308.5 47.5,309.5C 44.4816,309.335 41.4816,309.502 38.5,310C 39.4231,312.041 39.7564,314.208 39.5,316.5C 40.552,316.351 41.552,316.517 42.5,317C 40.6667,317.167 38.8333,317.333 37,317.5C 34.7047,317.453 32.8714,316.787 31.5,315.5C 30.9771,308.609 30.3104,301.775 29.5,295C 29.9204,246.079 30.2537,196.245 30.5,145.5C 29.43,143.121 28.7634,140.621 28.5,138C 30.309,132.552 30.6423,127.052 29.5,121.5C 31.0344,116.699 32.3677,111.866 33.5,107C 32.6634,105.989 32.33,104.822 32.5,103.5C 34.924,103.808 37.2573,103.474 39.5,102.5C 38.7579,101.713 37.9246,101.047 37,100.5C 36.6227,96.9813 36.1227,93.4813 35.5,90C 35.817,87.6721 36.9837,85.8387 39,84.5C 39.3076,85.3081 39.8076,85.9747 40.5,86.5C 41.451,85.6744 42.451,85.5078 43.5,86C 43.1667,86.3333 42.8333,86.6667 42.5,87C 43.2066,89.5197 44.04,92.0197 45,94.5C 48.4606,96.6532 51.7939,98.9866 55,101.5C 54.5783,104.098 54.5783,106.764 55,109.5C 57.7191,108.556 60.5525,108.223 63.5,108.5C 63.5,112.833 63.5,117.167 63.5,121.5C 66.1667,121.833 68.8333,122.167 71.5,122.5C 71.762,123.978 71.4287,125.311 70.5,126.5C 68.3379,124.98 66.0046,123.98 63.5,123.5C 63.5,124.833 63.5,126.167 63.5,127.5C 65.5,127.5 67.5,127.5 69.5,127.5C 69.955,129.367 70.6216,131.2 71.5,133C 71.2451,134.326 70.5784,135.326 69.5,136C 72.1667,137.667 72.1667,139.333 69.5,141C 70.3081,141.308 70.9747,141.808 71.5,142.5C 70.6086,143.59 69.6086,143.59 68.5,142.5C 67.6667,143.5 66.8333,144.5 66,145.5C 65.0045,150.852 65.5045,156.019 67.5,161C 66.5182,161.381 65.8515,162.214 65.5,163.5C 67.079,163.828 67.7457,165.328 67.5,168C 67.1734,169.813 66.5067,171.48 65.5,173C 66.3439,175.394 67.6772,176.561 69.5,176.5C 67.041,178.05 66.3743,180.05 67.5,182.5C 66.0202,183.113 64.6869,183.446 63.5,183.5C 73.8934,185.698 73.8934,187.198 63.5,188C 62.5,189 61.5,190 60.5,191C 62.7567,190.69 65.09,190.19 67.5,189.5C 69.3197,189.649 70.8197,190.316 72,191.5C 72.3333,189.5 72.6667,187.5 73,185.5C 74.419,187.336 75.5857,189.336 76.5,191.5C 77.0061,188.5 78.5061,186.167 81,184.5C 82.2247,184.862 83.3914,185.362 84.5,186C 85.3487,188.355 86.8487,190.188 89,191.5C 90.0588,191.37 90.8921,190.87 91.5,190C 88.9534,187.777 89.2867,185.944 92.5,184.5 Z"/></g>
<g><path style="opacity:1" fill="#79d38a" d="M 258.5,106.5 C 247.084,115.248 237.417,125.581 229.5,137.5C 230.06,135.199 230.56,132.866 231,130.5C 232.011,129.663 233.178,129.33 234.5,129.5C 238.919,122.999 243.586,116.665 248.5,110.5C 249.5,110.5 250.5,110.5 251.5,110.5C 251.5,109.5 251.5,108.5 251.5,107.5C 253.806,107.007 256.139,106.674 258.5,106.5 Z"/></g>
<g><path style="opacity:1" fill="#72d88e" d="M 85.5,102.5 C 82.8762,106.085 81.0428,110.085 80,114.5C 79.0165,135.206 78.8498,155.873 79.5,176.5C 78.1682,167.191 77.5015,157.524 77.5,147.5C 77.6667,137.833 77.8333,128.167 78,118.5C 78.3951,115.793 78.8951,113.127 79.5,110.5C 79.9802,107.995 80.9802,105.662 82.5,103.5C 83.325,102.614 84.325,102.281 85.5,102.5 Z"/></g>
<g><path style="opacity:1" fill="#79da8d" d="M 229.5,137.5 C 223.619,150.932 217.452,164.265 211,177.5C 210.051,179.093 208.885,180.426 207.5,181.5C 209.022,173.407 212.355,166.241 217.5,160C 218,157.5 218.5,155 219,152.5C 222.776,147.613 226.276,142.613 229.5,137.5 Z"/></g>
<g><path style="opacity:1" fill="#7adf8f" d="M 176.5,127.5 C 176.579,130.271 176.079,132.937 175,135.5C 171.719,141.547 169.052,147.881 167,154.5C 160.838,159.662 155.005,165.162 149.5,171C 148.207,171.49 146.873,171.657 145.5,171.5C 152.1,166.735 157.933,161.069 163,154.5C 168.073,145.687 172.573,136.687 176.5,127.5 Z"/></g>
<g><path style="opacity:1" fill="#50f987" d="M 215.5,78.5 C 215.141,80.371 214.141,81.871 212.5,83C 207.99,84.8026 205.99,87.9692 206.5,92.5C 205.914,92.2907 205.414,91.9574 205,91.5C 204.333,92.8333 204.333,94.1667 205,95.5C 205.333,95.1667 205.667,94.8333 206,94.5C 207.993,97.2802 207.16,98.1135 203.5,97C 202.41,94.0299 200.744,93.6965 198.5,96C 198.833,96.3333 199.167,96.6667 199.5,97C 198.304,98.364 197.304,99.864 196.5,101.5C 196.799,103.815 197.632,103.815 199,101.5C 200.008,101.982 201.175,102.148 202.5,102C 204,103.833 205.5,105.667 207,107.5C 209.905,106.423 212.738,106.757 215.5,108.5C 212.241,110.792 209.074,110.792 206,108.5C 205.5,108.833 205,109.167 204.5,109.5C 206.703,111.295 207.869,113.629 208,116.5C 210.666,112.478 212.999,112.811 215,117.5C 215.49,116.207 215.657,114.873 215.5,113.5C 218.5,113.167 219.833,114.5 219.5,117.5C 221.492,117.672 223.158,117.005 224.5,115.5C 225.685,116.853 227.019,118.02 228.5,119C 227.552,119.483 226.552,119.649 225.5,119.5C 225.247,121.827 225.914,123.827 227.5,125.5C 224.271,126.875 223.104,129.208 224,132.5C 224.284,130.114 225.284,129.448 227,130.5C 232.616,125.722 238.116,120.722 243.5,115.5C 245.908,111.174 248.908,107.341 252.5,104C 256.374,103.567 260.374,102.734 264.5,101.5C 262.059,102.709 260.059,104.376 258.5,106.5C 256.139,106.674 253.806,107.007 251.5,107.5C 251.5,108.5 251.5,109.5 251.5,110.5C 250.5,110.5 249.5,110.5 248.5,110.5C 243.586,116.665 238.919,122.999 234.5,129.5C 233.178,129.33 232.011,129.663 231,130.5C 230.56,132.866 230.06,135.199 229.5,137.5C 226.276,142.613 222.776,147.613 219,152.5C 218.5,155 218,157.5 217.5,160C 212.355,166.241 209.022,173.407 207.5,181.5C 204.309,184.183 201.142,187.183 198,190.5C 197.517,191.448 197.351,192.448 197.5,193.5C 192.667,194.508 189.167,197.175 187,201.5C 185.081,202.249 182.914,203.415 180.5,205C 181.451,205.718 181.617,206.551 181,207.5C 178.024,209.095 175.19,210.929 172.5,213C 171.177,213.816 170.511,214.983 170.5,216.5C 169.341,218.25 167.674,219.25 165.5,219.5C 163.473,219.338 161.473,219.505 159.5,220C 155.146,222.423 150.479,223.923 145.5,224.5C 142.001,227.137 138.001,228.137 133.5,227.5C 132.527,227.013 131.527,226.513 130.5,226C 131.696,225.346 131.696,224.846 130.5,224.5C 129.252,225.04 128.085,225.707 127,226.5C 124.333,225.833 121.667,225.167 119,224.5C 118.393,220.463 118.56,216.463 119.5,212.5C 116.833,212.5 114.167,212.5 111.5,212.5C 111.5,210.833 111.5,209.167 111.5,207.5C 111.5,202.167 111.5,196.833 111.5,191.5C 106.257,191.066 101.257,190.899 96.5,191C 95.6012,189.01 96.4345,187.843 99,187.5C 100.894,187.539 101.894,188.206 102,189.5C 104.961,187.968 108.128,187.134 111.5,187C 106.288,186.802 100.954,185.968 95.5,184.5C 97.9779,183.836 100.645,183.503 103.5,183.5C 108.705,183.44 113.539,184.107 118,185.5C 120.795,184.815 123.628,184.315 126.5,184C 123.818,181.67 124.151,181.17 127.5,182.5C 132.842,180.83 138.175,179.164 143.5,177.5C 143.5,176.5 143.5,175.5 143.5,174.5C 144.551,173.778 145.218,172.778 145.5,171.5C 146.873,171.657 148.207,171.49 149.5,171C 155.005,165.162 160.838,159.662 167,154.5C 169.052,147.881 171.719,141.547 175,135.5C 176.079,132.937 176.579,130.271 176.5,127.5C 177.659,123.849 179.326,120.515 181.5,117.5C 183.569,115.427 185.902,113.76 188.5,112.5C 192.584,102.568 198.25,93.568 205.5,85.5C 208.299,82.3614 211.633,80.0281 215.5,78.5 Z"/></g>
<g><path style="opacity:1" fill="#76d388" d="M 145.5,171.5 C 145.218,172.778 144.551,173.778 143.5,174.5C 138.231,176.641 132.897,178.474 127.5,180C 119.5,180.167 111.5,180.333 103.5,180.5C 95.1376,180.498 87.1376,179.831 79.5,178.5C 94.0921,179.649 108.759,179.815 123.5,179C 131.337,177.777 138.67,175.277 145.5,171.5 Z"/></g>
<g><path style="opacity:1" fill="#5ef28f" d="M 79.5,110.5 C 78.8951,113.127 78.3951,115.793 78,118.5C 77.8333,128.167 77.6667,137.833 77.5,147.5C 77.5015,157.524 78.1682,167.191 79.5,176.5C 79.5,177.167 79.5,177.833 79.5,178.5C 87.1376,179.831 95.1376,180.498 103.5,180.5C 111.5,180.333 119.5,180.167 127.5,180C 132.897,178.474 138.231,176.641 143.5,174.5C 143.5,175.5 143.5,176.5 143.5,177.5C 138.175,179.164 132.842,180.83 127.5,182.5C 124.151,181.17 123.818,181.67 126.5,184C 123.628,184.315 120.795,184.815 118,185.5C 113.539,184.107 108.705,183.44 103.5,183.5C 100.645,183.503 97.9779,183.836 95.5,184.5C 94.5,184.5 93.5,184.5 92.5,184.5C 87.4482,184.55 82.4482,184.05 77.5,183C 72.9402,170.878 72.2735,158.711 75.5,146.5C 75.1322,145.09 74.2989,144.09 73,143.5C 72.3333,136.167 72.3333,128.833 73,121.5C 73.5,120.333 74.3333,119.5 75.5,119C 75.1667,118.667 74.8333,118.333 74.5,118C 75.8233,114.559 76.6566,111.059 77,107.5C 77.2355,109.119 78.0689,110.119 79.5,110.5 Z"/></g>
<g><path style="opacity:1" fill="#50f988" d="M 111.5,207.5 C 111.5,209.167 111.5,210.833 111.5,212.5C 114.167,212.5 116.833,212.5 119.5,212.5C 118.56,216.463 118.393,220.463 119,224.5C 121.667,225.167 124.333,225.833 127,226.5C 128.085,225.707 129.252,225.04 130.5,224.5C 131.696,224.846 131.696,225.346 130.5,226C 131.527,226.513 132.527,227.013 133.5,227.5C 133.5,228.167 133.167,228.5 132.5,228.5C 114.826,229.546 96.8257,229.546 78.5,228.5C 77.6667,229.5 76.8333,230.5 76,231.5C 75.8225,253.21 75.3225,274.876 74.5,296.5C 75.8587,298.306 75.5254,299.806 73.5,301C 74.1667,301.667 74.8333,302.333 75.5,303C 74.0214,311.056 74.3547,319.056 76.5,327C 76.0507,329.326 75.2174,331.493 74,333.5C 73.3507,330.063 72.8507,329.896 72.5,333C 72.6667,333.833 72.8333,334.667 73,335.5C 73.6667,334.167 74.3333,334.167 75,335.5C 75.3108,337.556 75.8108,339.556 76.5,341.5C 75.5524,346.435 75.219,351.435 75.5,356.5C 73.549,356.773 72.049,356.107 71,354.5C 70.3076,355.025 69.8076,355.692 69.5,356.5C 56.0632,357.437 42.7299,357.77 29.5,357.5C 28.5258,355.257 28.1924,352.924 28.5,350.5C 30.7664,348.807 31.0997,346.64 29.5,344C 30.1549,334.402 30.8216,324.902 31.5,315.5C 32.8714,316.787 34.7047,317.453 37,317.5C 38.8333,317.333 40.6667,317.167 42.5,317C 41.552,316.517 40.552,316.351 39.5,316.5C 39.7564,314.208 39.4231,312.041 38.5,310C 41.4816,309.502 44.4816,309.335 47.5,309.5C 47.5,308.5 47.5,307.5 47.5,306.5C 50.1667,306.5 52.8333,306.5 55.5,306.5C 55.5,305.5 55.5,304.5 55.5,303.5C 47.7044,303.595 47.7044,302.762 55.5,301C 52.9865,299.748 50.3198,299.248 47.5,299.5C 47.5,300.833 47.5,302.167 47.5,303.5C 44.8333,303.5 42.1667,303.5 39.5,303.5C 38.8457,299.683 36.8457,296.85 33.5,295C 36.955,293.889 38.955,295.056 39.5,298.5C 45.7406,298.122 51.5739,296.456 57,293.5C 57.7737,291.597 57.4404,289.93 56,288.5C 55.5658,292.223 54.7324,292.39 53.5,289C 56.1754,285.999 58.8421,282.999 61.5,280C 59.5273,279.505 57.5273,279.338 55.5,279.5C 55.5,280.5 55.5,281.5 55.5,282.5C 54.5,282.5 53.5,282.5 52.5,282.5C 52.5792,283.93 52.2458,285.264 51.5,286.5C 46.9643,288.684 44.4643,287.35 44,282.5C 41.1037,280.606 38.9371,278.106 37.5,275C 37.6251,273.373 38.1251,271.873 39,270.5C 40.5095,271.09 42.0095,271.756 43.5,272.5C 42.6086,273.59 41.6086,273.59 40.5,272.5C 39.1667,273.833 39.1667,275.167 40.5,276.5C 43.2307,273.582 45.3974,273.915 47,277.5C 48.5059,275.826 50.3393,274.826 52.5,274.5C 52.5198,276.143 51.8532,277.476 50.5,278.5C 51,278.833 51.5,279.167 52,279.5C 54.2887,278.381 56.4553,277.047 58.5,275.5C 59.4147,274.672 60.0814,273.672 60.5,272.5C 58.9936,271.253 57.4936,271.253 56,272.5C 55.5045,270.527 55.3379,268.527 55.5,266.5C 54.5,266.5 53.5,266.5 52.5,266.5C 52.5792,267.93 52.2458,269.264 51.5,270.5C 52.0253,271.192 52.6919,271.692 53.5,272C 51.5116,272.18 49.5116,272.014 47.5,271.5C 47.5,270.5 47.5,269.5 47.5,268.5C 44.0795,268.517 40.7462,268.683 37.5,269C 38,268.5 38.5,268 39,267.5C 39.1725,263.129 39.6725,258.796 40.5,254.5C 43.7565,253.251 45.4232,250.918 45.5,247.5C 42.9552,247.151 40.9552,247.984 39.5,250C 41.6574,251.085 41.8241,252.251 40,253.5C 39.1502,251.99 38.3169,250.49 37.5,249C 38.0223,248.05 38.689,247.216 39.5,246.5C 37.5989,245.065 37.2655,243.398 38.5,241.5C 40.7466,242.374 43.0799,242.708 45.5,242.5C 45.9153,240.253 46.5819,238.086 47.5,236C 46.9066,233.237 45.2399,231.737 42.5,231.5C 42.5,230.5 42.5,229.5 42.5,228.5C 41.5,228.5 40.5,228.5 39.5,228.5C 39.2011,226.396 39.5344,224.396 40.5,222.5C 41.7362,223.246 43.0695,223.579 44.5,223.5C 44.5,224.5 44.5,225.5 44.5,226.5C 46.5116,227.014 48.5116,227.18 50.5,227C 50.8333,226.667 51.1667,226.333 51.5,226C 49.9559,225.71 48.6226,225.044 47.5,224C 48.3333,223.833 49.1667,223.667 50,223.5C 52.9968,224.178 55.8301,225.178 58.5,226.5C 58.5,225.5 58.5,224.5 58.5,223.5C 54.0879,222.315 49.7546,220.982 45.5,219.5C 48.6169,218.016 51.9502,217.016 55.5,216.5C 56.0253,215.808 56.6919,215.308 57.5,215C 53.983,213.891 53.8163,212.724 57,211.5C 58.6942,213.429 60.8609,214.429 63.5,214.5C 63.5,213.5 63.5,212.5 63.5,211.5C 66.3229,210.783 68.9896,209.783 71.5,208.5C 71.0077,204.71 71.841,204.044 74,206.5C 74.6667,204.833 74.6667,203.167 74,201.5C 71.6068,203.994 70.4401,203.327 70.5,199.5C 72.1667,199.5 73.8333,199.5 75.5,199.5C 75.687,197.436 76.187,195.436 77,193.5C 77.9203,196.101 78.587,198.768 79,201.5C 79.4935,199.866 79.6602,198.199 79.5,196.5C 81.9541,196.679 84.1208,196.013 86,194.5C 86.8732,194.735 87.7065,195.069 88.5,195.5C 89.8333,196.167 89.8333,196.833 88.5,197.5C 86.7367,196.046 85.4033,196.38 84.5,198.5C 86.4458,199.802 88.2791,200.469 90,200.5C 90.7404,209.434 91.5737,209.101 92.5,199.5C 94.1238,199.64 95.2904,198.973 96,197.5C 98.4067,199.875 97.9067,200.875 94.5,200.5C 94.3367,202.857 94.5034,205.19 95,207.5C 95.0053,203.308 96.8387,201.642 100.5,202.5C 99.8333,203.167 99.1667,203.833 98.5,204.5C 101.435,206.815 104.769,207.815 108.5,207.5C 108.231,205.571 108.731,203.905 110,202.5C 110.198,204.382 110.698,206.048 111.5,207.5 Z"/></g>
<g><path style="opacity:1" fill="#79e58e" d="M 207.5,181.5 C 201.521,190.993 194.188,199.493 185.5,207C 180.866,210.812 175.866,213.979 170.5,216.5C 170.511,214.983 171.177,213.816 172.5,213C 175.19,210.929 178.024,209.095 181,207.5C 181.617,206.551 181.451,205.718 180.5,205C 182.914,203.415 185.081,202.249 187,201.5C 189.167,197.175 192.667,194.508 197.5,193.5C 197.351,192.448 197.517,191.448 198,190.5C 201.142,187.183 204.309,184.183 207.5,181.5 Z"/></g>
<g><path style="opacity:1" fill="#76ea94" d="M 306.5,181.5 C 280.469,181.077 254.469,181.577 228.5,183C 224.713,188.456 220.546,193.623 216,198.5C 214.735,201.461 213.569,204.461 212.5,207.5C 211.311,208.429 209.978,208.762 208.5,208.5C 206.914,211.114 205.248,213.78 203.5,216.5C 199.718,218.543 195.718,220.209 191.5,221.5C 204.583,210.984 215.583,198.65 224.5,184.5C 225.837,183.685 226.837,182.518 227.5,181C 254.003,180.17 280.337,180.337 306.5,181.5 Z"/></g>
<g><path style="opacity:1" fill="#50f888" d="M 306.5,181.5 C 308.402,184.337 309.069,187.671 308.5,191.5C 306.804,202.351 306.471,213.351 307.5,224.5C 306.408,225.831 305.074,226.664 303.5,227C 303.833,227.333 304.167,227.667 304.5,228C 301.833,228.167 299.167,228.333 296.5,228.5C 293.387,228.438 290.554,227.771 288,226.5C 280.903,227.815 273.569,228.481 266,228.5C 258.431,228.481 251.097,227.815 244,226.5C 243.047,228.592 241.714,228.925 240,227.5C 237.631,228.551 235.131,229.218 232.5,229.5C 226.849,228.543 221.182,228.543 215.5,229.5C 213.936,234.294 212.936,239.294 212.5,244.5C 212.338,254.81 212.671,265.144 213.5,275.5C 213.743,277.922 212.743,279.588 210.5,280.5C 213.895,284.438 214.395,288.771 212,293.5C 211.667,291.833 211.333,290.167 211,288.5C 210.503,290.81 210.337,293.143 210.5,295.5C 211.552,295.351 212.552,295.517 213.5,296C 213.08,310.874 212.746,325.707 212.5,340.5C 213.061,344.863 213.727,349.196 214.5,353.5C 213.596,354.209 213.263,355.209 213.5,356.5C 211.94,356.519 210.44,356.852 209,357.5C 199.917,356.262 190.917,355.596 182,355.5C 179.539,356.218 177.039,356.885 174.5,357.5C 172.857,348.345 172.523,339.179 173.5,330C 172.061,326.724 170.395,323.557 168.5,320.5C 170.683,317.867 171.016,315.034 169.5,312C 170.274,309.595 170.774,307.095 171,304.5C 171.333,309.5 171.667,314.5 172,319.5C 173.064,318.056 173.564,316.389 173.5,314.5C 173.46,310.296 172.46,306.463 170.5,303C 172.746,298.772 173.579,294.272 173,289.5C 172.25,288.874 171.416,288.374 170.5,288C 172.235,286.818 173.235,285.151 173.5,283C 172.403,280.195 172.403,277.362 173.5,274.5C 173.167,273.5 172.833,272.5 172.5,271.5C 171.671,276.467 171.171,281.467 171,286.5C 169.107,282.91 168.273,279.077 168.5,275C 169.57,268.65 169.57,262.317 168.5,256C 168.851,252.896 169.351,253.063 170,256.5C 170.45,254.481 171.283,252.648 172.5,251C 171.233,249.204 171.233,247.371 172.5,245.5C 172.154,244.304 171.654,244.304 171,245.5C 170.517,244.552 170.351,243.552 170.5,242.5C 173.374,240.984 176.041,238.984 178.5,236.5C 177.371,234.471 177.871,234.137 180,235.5C 181.667,233.833 183.333,232.167 185,230.5C 186.508,232.838 188.675,233.838 191.5,233.5C 191.5,230.5 191.5,227.5 191.5,224.5C 194.69,224.487 197.524,223.487 200,221.5C 201.659,220.184 202.825,218.518 203.5,216.5C 205.248,213.78 206.914,211.114 208.5,208.5C 209.978,208.762 211.311,208.429 212.5,207.5C 213.569,204.461 214.735,201.461 216,198.5C 220.546,193.623 224.713,188.456 228.5,183C 254.469,181.577 280.469,181.077 306.5,181.5 Z"/></g>
<g><path style="opacity:1" fill="#5df08e" d="M 308.5,191.5 C 308.5,204.833 308.5,218.167 308.5,231.5C 278.498,231.333 248.498,231.5 218.5,232C 217.584,232.278 216.918,232.778 216.5,233.5C 215.833,273.5 215.167,313.5 214.5,353.5C 213.727,349.196 213.061,344.863 212.5,340.5C 212.746,325.707 213.08,310.874 213.5,296C 212.552,295.517 211.552,295.351 210.5,295.5C 210.337,293.143 210.503,290.81 211,288.5C 211.333,290.167 211.667,291.833 212,293.5C 214.395,288.771 213.895,284.438 210.5,280.5C 212.743,279.588 213.743,277.922 213.5,275.5C 212.671,265.144 212.338,254.81 212.5,244.5C 212.936,239.294 213.936,234.294 215.5,229.5C 221.182,228.543 226.849,228.543 232.5,229.5C 235.131,229.218 237.631,228.551 240,227.5C 241.714,228.925 243.047,228.592 244,226.5C 251.097,227.815 258.431,228.481 266,228.5C 273.569,228.481 280.903,227.815 288,226.5C 290.554,227.771 293.387,228.438 296.5,228.5C 299.167,228.333 301.833,228.167 304.5,228C 304.167,227.667 303.833,227.333 303.5,227C 305.074,226.664 306.408,225.831 307.5,224.5C 306.471,213.351 306.804,202.351 308.5,191.5 Z"/></g>
<g><path style="opacity:1" fill="#71d683" d="M 165.5,219.5 C 146.538,229.496 126.205,234.163 104.5,233.5C 96.5042,232.733 88.5042,232.567 80.5,233C 79.944,233.383 79.6107,233.883 79.5,234.5C 78.2264,233.811 78.2264,232.977 79.5,232C 91.8333,231.667 104.167,231.333 116.5,231C 122.005,230.339 127.338,229.506 132.5,228.5C 133.167,228.5 133.5,228.167 133.5,227.5C 138.001,228.137 142.001,227.137 145.5,224.5C 150.479,223.923 155.146,222.423 159.5,220C 161.473,219.505 163.473,219.338 165.5,219.5 Z"/></g>
<g><path style="opacity:1" fill="#6dc679" d="M 216.5,360.5 C 216.5,318.167 216.5,275.833 216.5,233.5C 216.918,232.778 217.584,232.278 218.5,232C 248.498,231.5 278.498,231.333 308.5,231.5C 308.5,218.167 308.5,204.833 308.5,191.5C 309.069,187.671 308.402,184.337 306.5,181.5C 280.337,180.337 254.003,180.17 227.5,181C 226.837,182.518 225.837,183.685 224.5,184.5C 224.751,182.83 225.418,181.33 226.5,180C 254.167,179.333 281.833,179.333 309.5,180C 310.658,197.426 310.825,214.926 310,232.5C 279.333,233.167 248.667,233.833 218,234.5C 217.414,273.322 217.58,312.155 218.5,351C 218.579,354.451 217.913,357.618 216.5,360.5 Z"/></g>
<g><path style="opacity:1" fill="#6aeb8f" d="M 32.5,89.5 C 32.6646,92.5184 32.498,95.5184 32,98.5C 30.9834,102.55 29.65,106.55 28,110.5C 27.8443,190.5 28.011,270.5 28.5,350.5C 28.1924,352.924 28.5258,355.257 29.5,357.5C 42.7299,357.77 56.0632,357.437 69.5,356.5C 69.8076,355.692 70.3076,355.025 71,354.5C 72.049,356.107 73.549,356.773 75.5,356.5C 75.219,351.435 75.5524,346.435 76.5,341.5C 75.8108,339.556 75.3108,337.556 75,335.5C 74.3333,334.167 73.6667,334.167 73,335.5C 72.8333,334.667 72.6667,333.833 72.5,333C 72.8507,329.896 73.3507,330.063 74,333.5C 75.2174,331.493 76.0507,329.326 76.5,327C 74.3547,319.056 74.0214,311.056 75.5,303C 74.8333,302.333 74.1667,301.667 73.5,301C 75.5254,299.806 75.8587,298.306 74.5,296.5C 75.3225,274.876 75.8225,253.21 76,231.5C 76.8333,230.5 77.6667,229.5 78.5,228.5C 96.8257,229.546 114.826,229.546 132.5,228.5C 127.338,229.506 122.005,230.339 116.5,231C 104.167,231.333 91.8333,231.667 79.5,232C 78.2264,232.977 78.2264,233.811 79.5,234.5C 79.5,235.167 79.5,235.833 79.5,236.5C 78.5416,236.047 77.7083,235.381 77,234.5C 77.2351,250.141 77.5684,265.807 78,281.5C 78.21,283.058 78.71,284.391 79.5,285.5C 78.2758,303.295 78.2758,320.962 79.5,338.5C 78.8826,338.611 78.3826,338.944 78,339.5C 77.5004,346.492 77.3337,353.492 77.5,360.5C 60.8333,360.5 44.1667,360.5 27.5,360.5C 26.8826,360.389 26.3826,360.056 26,359.5C 25.3333,277.167 25.3333,194.833 26,112.5C 26.7905,104.323 28.9571,96.6567 32.5,89.5 Z"/></g>
<g><path style="opacity:1" fill="#6fc37d" d="M 79.5,236.5 C 79.5,252.833 79.5,269.167 79.5,285.5C 78.71,284.391 78.21,283.058 78,281.5C 77.5684,265.807 77.2351,250.141 77,234.5C 77.7083,235.381 78.5416,236.047 79.5,236.5 Z"/></g>
<g><path style="opacity:1" fill="#6bbd81" d="M 166.5,236.5 C 165.511,277.791 165.178,319.124 165.5,360.5C 164.335,319.669 164.169,278.669 165,237.5C 165.383,236.944 165.883,236.611 166.5,236.5 Z"/></g>
<g><path style="opacity:1" fill="#55f28a" d="M 203.5,216.5 C 202.825,218.518 201.659,220.184 200,221.5C 197.524,223.487 194.69,224.487 191.5,224.5C 191.5,227.5 191.5,230.5 191.5,233.5C 188.675,233.838 186.508,232.838 185,230.5C 183.333,232.167 181.667,233.833 180,235.5C 177.871,234.137 177.371,234.471 178.5,236.5C 176.041,238.984 173.374,240.984 170.5,242.5C 170.351,243.552 170.517,244.552 171,245.5C 171.654,244.304 172.154,244.304 172.5,245.5C 171.233,247.371 171.233,249.204 172.5,251C 171.283,252.648 170.45,254.481 170,256.5C 169.351,253.063 168.851,252.896 168.5,256C 169.57,262.317 169.57,268.65 168.5,275C 168.273,279.077 169.107,282.91 171,286.5C 171.171,281.467 171.671,276.467 172.5,271.5C 172.833,272.5 173.167,273.5 173.5,274.5C 172.403,277.362 172.403,280.195 173.5,283C 173.235,285.151 172.235,286.818 170.5,288C 171.416,288.374 172.25,288.874 173,289.5C 173.579,294.272 172.746,298.772 170.5,303C 172.46,306.463 173.46,310.296 173.5,314.5C 173.564,316.389 173.064,318.056 172,319.5C 171.667,314.5 171.333,309.5 171,304.5C 170.774,307.095 170.274,309.595 169.5,312C 171.016,315.034 170.683,317.867 168.5,320.5C 170.395,323.557 172.061,326.724 173.5,330C 172.523,339.179 172.857,348.345 174.5,357.5C 177.039,356.885 179.539,356.218 182,355.5C 190.917,355.596 199.917,356.262 209,357.5C 210.44,356.852 211.94,356.519 213.5,356.5C 213.263,355.209 213.596,354.209 214.5,353.5C 214.773,355.451 214.107,356.951 212.5,358C 203.494,358.5 194.494,358.333 185.5,357.5C 179.164,358.173 172.83,358.839 166.5,359.5C 166.333,320.165 166.5,280.832 167,241.5C 168.43,239.024 170.263,236.858 172.5,235C 177.731,232.769 182.731,230.103 187.5,227C 188.965,225.226 190.298,223.392 191.5,221.5C 195.718,220.209 199.718,218.543 203.5,216.5 Z"/></g>
<g><path style="opacity:1" fill="#77e897" d="M 191.5,221.5 C 190.298,223.392 188.965,225.226 187.5,227C 182.731,230.103 177.731,232.769 172.5,235C 170.263,236.858 168.43,239.024 167,241.5C 166.5,280.832 166.333,320.165 166.5,359.5C 172.83,358.839 179.164,358.173 185.5,357.5C 194.494,358.333 203.494,358.5 212.5,358C 214.107,356.951 214.773,355.451 214.5,353.5C 215.167,313.5 215.833,273.5 216.5,233.5C 216.5,275.833 216.5,318.167 216.5,360.5C 199.5,361.833 182.5,361.833 165.5,360.5C 165.178,319.124 165.511,277.791 166.5,236.5C 174.991,231.755 183.324,226.755 191.5,221.5 Z"/></g>
<g><path style="opacity:1" fill="#66b56f" d="M 79.5,338.5 C 79.7988,345.891 79.4655,353.224 78.5,360.5C 61.338,361.827 44.338,361.827 27.5,360.5C 44.1667,360.5 60.8333,360.5 77.5,360.5C 77.3337,353.492 77.5004,346.492 78,339.5C 78.3826,338.944 78.8826,338.611 79.5,338.5 Z"/></g>
</svg>
